<svg id="Layer_2" data-name="Layer 2" xmlns="http://www.w3.org/2000/svg" viewBox="0 0 359.08 81.08">
  <g>
    <g>
      <path d="M71.1,35.86c-1.42-1.09-1.06-.82-5.32.32,6.58-1.64,9.07,8.31,2.48,10-1.84.46-5.22-.73,1.57,1.09A6.67,6.67,0,0,0,71.1,35.86Z" fill="#ebebec"/>
      <path d="M60.81,27.56c4.88-4.7,12,2.68,7.11,7.39-1.37,1.31-4.86,2,1.91.15a6.69,6.69,0,0,0-5.46-10.54C63.61,24.56,64.16,24.2,60.81,27.56Z" fill="#ebebec"/>
      <path d="M52.18,59.74c1.65,6.58-8.31,9.07-10,2.48-.46-1.84.74-5.23-1.09,1.57a6.69,6.69,0,0,0,12.13,0Z" fill="#231f20"/>
      <path d="M33.6,54.76c-4.88,4.71-12-2.67-7.12-7.38,1.37-1.32,4.88-2-1.9-.16a6.69,6.69,0,0,0,6.05,10.51Z" fill="#ebebec"/>
      <path d="M60.81,54.76c4.7,4.88-2.68,12-7.39,7.11-1.33-1.38-2-4.88-.15,1.92a6.7,6.7,0,0,0,10.48-4.6C64,57.47,64,57.9,60.81,54.76Z" fill="#ebebec"/>
      <path d="M65.78,46.14C72.3,48,69.47,57.87,62.94,56c-1.81-.52-4.13-3.23.83,1.74a6.69,6.69,0,0,0,6.06-10.51Z" fill="#231f20"/>
      <path d="M42.23,59.74c-1.88,6.51-11.74,3.68-9.86-2.85.52-1.81,3.23-4.13-1.74.84a6.7,6.7,0,0,0,10.51,6.06Z" fill="#ebebec"/>
      <path d="M42.23,22.58c-1.64-6.58,8.31-9.07,10-2.48.46,1.84-.73,5.21,1.09-1.57a6.69,6.69,0,0,0-12.13,0Z" fill="#ebebec"/>
      <path d="M52.18,22.58c1.88-6.51,11.74-3.69,9.86,2.83-.53,1.84-3.22,4.13,1.73-.82a6.68,6.68,0,0,0-10.5-6.06Z" fill="#231f20"/>
      <path d="M33.6,27.56c-4.7-4.89,2.69-12,7.39-7.12,1.31,1.36,2,4.86.15-1.91a6.68,6.68,0,0,0-10.47,4.59C30.43,24.87,30.48,24.43,33.6,27.56Z" fill="#231f20"/>
      <path d="M28.63,46.14c-6.59,1.63-9.07-8.32-2.48-10,1.83-.45,5.16.72-1.43-1a.45.45,0,0,0-.28,0,6.68,6.68,0,0,0,0,12C24.63,47.25,24.42,47.26,28.63,46.14Z" fill="#231f20"/>
      <path d="M28.82,36.16C22.3,34.28,25,24.44,31.47,26.32c1.84.54,4.14,3.25-.84-1.73a6.69,6.69,0,0,0-6.77,9.22C24.55,35.45,24.53,35.1,28.82,36.16Z" fill="#ebebec"/>
    </g>
    <g>
      <path d="M42.39,58.87c1.58-5.57,1.66-8,4.54-8.25,0-5.29.23-3.5-2.34-5-1.29-.75-1.15-.35-9.65,8.15A5.13,5.13,0,0,1,42.39,58.87Z" fill="#ededee"/>
      <path d="M52.29,41.19c0,3-1.38,1.88,3.05,4.44a3.19,3.19,0,0,1,3.55-1.37c13,3.44.58,1.74,3.4-5.07,1.2-2.88,6.65-3.58-9,.61A1.41,1.41,0,0,0,52.29,41.19Z" fill="#ededee"/>
      <path d="M52.19,59.8s0,0,0-.15A.4.4,0,0,1,52.19,59.8Z" fill="#ededee"/>
      <path d="M55.11,46.06c-4.53-2.62-3-1.77-5.38-.43-2.55,1.47-2.32-.28-2.32,5,3,.2,3.07,2.74,4.75,9a5.14,5.14,0,0,1,7.9-5.53C56.05,50,53.89,48.69,55.11,46.06Z" fill="#ededee"/>
      <path d="M60.74,27.62l0,0Z" fill="#ededee"/>
      <path d="M60.8,27.57l-.06.05Z" fill="#ededee"/>
      <path d="M59.93,33.81a5.12,5.12,0,0,1,.65-6c-4.24,4.15-5.68,6.88-8.51,5.4-1.37,2.37-2.33,3.32-1.28,4.37,2.4,2.4-1.18,2.72,13.44-1.2A5.11,5.11,0,0,1,59.93,33.81Z" fill="#ededee"/>
      <path d="M52.16,22.67a5.13,5.13,0,0,1-9.91,0,4.62,4.62,0,0,1,.17,1.23c1.37,4.61,3,7.34.3,9.1,1.32,2.29,1.69,3.65,3.12,3.25,3.78-1,2.53,2.38,5.81-3.31C49.39,31.32,50.39,29.32,52.16,22.67Z" fill="#ededee"/>
      <path d="M42.23,22.57s0,0,0,.1C42.24,22.63,42.24,22.6,42.23,22.57Z" fill="#ededee"/>
      <path d="M52.18,22.58Z" fill="#ededee"/>
      <path d="M35.26,44.41c-12.42,3.39-.82-1.24-.11,6.18.28,3-4,6.27,7.4-5.13.94-.94,0-1.81-.33-3-.38-1.49-2.16-1.06-4.57-1.06A3.17,3.17,0,0,1,35.26,44.41Z" fill="#ededee"/>
      <path d="M38.59,32.61c-9.45-9.37.54-1.62-5.53,2.79-2.93,2.13-5.85,0-3.45,1.14,5.26,1.49,7.75,1.56,8,4.41,2.94,0,4.21.34,4.58-1.08.62-2.32,2.41-2.59,1.59-4l-1.52-2.63A3.21,3.21,0,0,1,38.59,32.61Z" fill="#ededee"/>
      <path d="M28.57,36.16s0,0,.14,0Z" fill="#ededee"/>
      <path d="M52,23.47c-1.47,5.57-2.71,7.77-.36,9.47a3.19,3.19,0,0,0,4.18-.29l4.9-5A5.15,5.15,0,0,1,52,23.47Z" fill="#231f20"/>
      <path d="M33.58,27.53c-.27-.28-.44-.54-.21-.18S33.55,27.57,33.58,27.53Z" fill="#231f20"/>
      <path d="M42.72,33a3.12,3.12,0,0,0,1.36-3.49c-3.24-11.85.2-4.05-4.12-1.33-1.16,1.27-4.3,1.43-6.29-.56C38.16,32.13,39.51,34.79,42.72,33Z" fill="#231f20"/>
      <path d="M33.58,27.53Z" fill="#231f20"/>
      <path d="M28.55,46.15c-.37.09-1.15.17-.37.14C28.56,46.14,28.55,46.19,28.55,46.15Z" fill="#231f20"/>
      <path d="M28.55,46.15s0,0,.16,0Z" fill="#231f20"/>
      <path d="M37.64,41c-.28-2.91-3.25-3.19-8.32-4.62,4,1.91,3.79,8.6-.61,9.78C34.42,44.58,37.73,44.74,37.64,41Z" fill="#231f20"/>
      <path d="M42.2,59.81c-.09.31-.11.24-.08.52C42.19,59.79,42.24,59.82,42.2,59.81Z" fill="#231f20"/>
      <path d="M42.2,59.81s0,0,0-.16A.75.75,0,0,1,42.2,59.81Z" fill="#231f20"/>
      <path d="M47.41,50.61c-3.55-.22-3.72,3.64-5.16,9A5.13,5.13,0,0,1,52,59.18C50.37,53.16,50.32,50.81,47.41,50.61Z" fill="#231f20"/>
      <path d="M65.79,46.14c.24.07.31.11.17,0S65.8,46.1,65.79,46.14Z" fill="#231f20"/>
      <path d="M60.83,54.79c.2.21.15.18.28.23C60.75,54.73,60.86,54.75,60.83,54.79Z" fill="#231f20"/>
      <path d="M65.79,46.14Z" fill="#231f20"/>
      <path d="M55.11,46.06c1.56-3.37,5-1.44,10.59,0a5.14,5.14,0,0,0-5,8.59C56.46,50.41,53.83,48.82,55.11,46.06Z"/>
      <path d="M60.83,54.79h0C60.7,54.67,60.72,54.67,60.83,54.79Z" fill="#231f20"/>
      <path d="M42,22.62c0,.07,0-.15.38,1.28C42.42,23.68,42.38,22.53,42,22.62Z" fill="#ededee"/>
      <path d="M33.54,27.57s.08,0-.17-.22C33.39,27.38,33.51,27.6,33.54,27.57Z" fill="#231f20"/>
      <path d="M33.54,27.57s.08,0-.17-.22C33.39,27.38,33.51,27.6,33.54,27.57Z" fill="#eb0d8c"/>
      <path d="M33.58,27.53c-.06.06-.15-.05.61.7A5.46,5.46,0,0,0,33.58,27.53Z" fill="#231f20"/>
      <path d="M33.58,27.53c-.06.06-.15-.05.61.7A5.46,5.46,0,0,0,33.58,27.53Z" fill="#eb0d8c"/>
      <path d="M28.55,36.24l1.06.3C29.52,36.49,28.59,36.07,28.55,36.24Z" fill="#ededee"/>
      <path d="M28.55,36.24l1.06.3C29.52,36.49,28.59,36.07,28.55,36.24Z" fill="#922a8e"/>
      <path d="M28.55,46.23s.1-.13-.37.06A1.19,1.19,0,0,0,28.55,46.23Z" fill="#231f20"/>
      <path d="M28.55,46.23s.1-.13-.37.06A1.19,1.19,0,0,0,28.55,46.23Z" fill="#2e3690"/>
      <path d="M28.71,46.11c-.51.14.21,0,.85-.15A6,6,0,0,0,28.71,46.11Z" fill="#231f20"/>
      <path d="M28.71,46.11c-.51.14.21,0,.85-.15A6,6,0,0,0,28.71,46.11Z" fill="#2e3690"/>
      <path d="M42.18,59.81s-.07-.06-.07.29C42.12,60.06,42.22,59.82,42.18,59.81Z" fill="#231f20"/>
      <path d="M42.18,59.81s-.07-.06-.07.29C42.12,60.06,42.22,59.82,42.18,59.81Z" fill="#0d73bb"/>
      <path d="M42.39,58.87c-.29,1-.28.92-.19.94A4,4,0,0,0,42.39,58.87Z" fill="#231f20"/>
      <path d="M42.39,58.87c-.29,1-.28.92-.19.94A4,4,0,0,0,42.39,58.87Z" fill="#0d73bb"/>
      <path d="M52,59.18c.11.4.26.87.15.47A3.68,3.68,0,0,0,52,59.18Z" fill="#ededee"/>
      <path d="M52,59.18c.11.4.26.87.15.47A3.68,3.68,0,0,0,52,59.18Z" fill="#2bace2"/>
      <path d="M60.8,54.82S61,55,61,55C60.81,54.75,60.83,54.78,60.8,54.82Z" fill="#231f20"/>
      <path d="M60.8,54.82S61,55,61,55C60.81,54.75,60.83,54.78,60.8,54.82Z" fill="#00a99d"/>
      <path d="M60.06,54.12c.79.81.7.73.77.67A5.12,5.12,0,0,0,60.06,54.12Z" fill="#231f20"/>
      <path d="M60.06,54.12c.79.81.7.73.77.67A5.12,5.12,0,0,0,60.06,54.12Z" fill="#00a99d"/>
      <path d="M65.79,46.14c.2,0,.25.06,0,0Z" fill="#88c541"/>
      <path d="M65.06,45.89c.77.33.93.25.55.15Z" fill="#88c541"/>
      <path d="M60.72,27.65l-.08.08Z" fill="#fcee23"/>
      <path d="M60.73,27.63c.08-.09.09,0,.06-.07Z" fill="#f89521"/>
      <path d="M52,23.47c.28-1,.19-.95.15-.8A5.37,5.37,0,0,0,52,23.47Z" fill="#f89521"/>
    </g>
    <g id="круги">
      <path d="M42.25,22.67c-1.76-6.55,8.15-9.22,9.91-2.66S44,29.22,42.25,22.67Z" fill="#ef372f"/>
      <path d="M33.67,27.62c-4.8-4.8,2.45-12,7.25-7.25S38.48,32.43,33.67,27.62Z" fill="#e21a58"/>
      <path d="M28.71,36.2c-6.55-1.75-3.9-11.66,2.66-9.9S35.27,38,28.71,36.2Z" fill="#eb0d8c"/>
      <path d="M28.71,46.11c-6.55,1.76-9.21-8.15-2.65-9.9S35.27,44.36,28.71,46.11Z" fill="#922a8e"/>
      <path d="M33.67,54.7c-4.8,4.79-12.06-2.46-7.25-7.26S38.47,49.89,33.67,54.7Z" fill="#2e3690"/>
      <path d="M42.25,59.65c-1.76,6.55-11.66,3.9-9.91-2.65S44,53.09,42.25,59.65Z" fill="#0d73bb"/>
      <path d="M52.16,59.65c1.75,6.55-8.15,9.21-9.91,2.65S50.4,53.09,52.16,59.65Z" fill="#2bace2"/>
      <path d="M60.74,54.7c4.8,4.79-2.45,12-7.25,7.25S55.94,49.89,60.74,54.7Z" fill="#00a99d"/>
      <path d="M65.7,46.11C72.25,47.87,69.6,57.78,63,56S59.14,44.35,65.7,46.11Z" fill="#06a64f"/>
      <path d="M65.7,36.2c6.55-1.75,9.21,8.15,2.65,9.91S59.15,38,65.7,36.2Z" fill="#88c541"/>
      <path d="M60.74,27.62c4.8-4.79,12.06,2.45,7.25,7.25S55.93,32.43,60.74,27.62Z" fill="#fcee23"/>
      <path d="M52.16,22.67c1.76-6.55,11.67-3.91,9.91,2.65S50.4,29.23,52.16,22.67Z" fill="#f89521"/>
    </g>
  </g>
  <g>
    <path d="M103.84,56a19.48,19.48,0,0,1-7-1.18,15,15,0,0,1-5.31-3.38,14.7,14.7,0,0,1-3.36-5.23A18.5,18.5,0,0,1,87,39.49,18.44,18.44,0,0,1,89,30.94,14.41,14.41,0,0,1,94.55,25a16.84,16.84,0,0,1,8.71-2.14,23.91,23.91,0,0,1,3,.2,25.94,25.94,0,0,1,2.89.54,23.83,23.83,0,0,1,2.58.77,18.88,18.88,0,0,1,2.13.92l-.56,6.84A22.11,22.11,0,0,0,110,30.41a17,17,0,0,0-3.09-1,13.61,13.61,0,0,0-2.83-.31,9.65,9.65,0,0,0-4.84,1.2,8.34,8.34,0,0,0-3.34,3.51,11.87,11.87,0,0,0-1.22,5.64,12.9,12.9,0,0,0,.62,4,9.71,9.71,0,0,0,1.89,3.33,8.74,8.74,0,0,0,3.16,2.28,11.11,11.11,0,0,0,4.45.83,15.08,15.08,0,0,0,2.11-.15,13.48,13.48,0,0,0,2.13-.45,12.86,12.86,0,0,0,2.15-.86,16.63,16.63,0,0,0,2.14-1.33l.4,6.74a12.91,12.91,0,0,1-2.12.94,17.91,17.91,0,0,1-2.45.66,24.48,24.48,0,0,1-2.63.38C105.63,56,104.73,56,103.84,56Z" fill="#231f20"/>
    <path d="M118.62,55.39V22.64l6.68-.58V36.2h.56a10.55,10.55,0,0,1,1.63-1.81A8,8,0,0,1,129.71,33a7.39,7.39,0,0,1,2.85-.53,6.33,6.33,0,0,1,5.07,2q1.73,2,1.72,5.91v15H132.7V42.52a5.51,5.51,0,0,0-.65-3,2.57,2.57,0,0,0-2.33-1A4,4,0,0,0,128,39a5.35,5.35,0,0,0-1.47,1,8.35,8.35,0,0,0-1.19,1.46V55.39Z" fill="#231f20"/>
    <path d="M144.47,55.39V33.1l5.6-.34.29,4.11h.56a9,9,0,0,1,1.92-2.76A5.73,5.73,0,0,1,155,32.83a7.3,7.3,0,0,1,2.1-.34,8.38,8.38,0,0,1,1.15.09,5.08,5.08,0,0,1,1.19.32l-.58,6.47-1.56-.11c-.46,0-.95,0-1.48,0a6.39,6.39,0,0,0-1.28.13,3.66,3.66,0,0,0-1.28.54A4.68,4.68,0,0,0,152.08,41a7,7,0,0,0-.93,1.86V55.39Z" fill="#231f20"/>
    <path d="M173,56a13.31,13.31,0,0,1-5.28-1A10.19,10.19,0,0,1,164,52.42a10.79,10.79,0,0,1-2.19-3.79,13.79,13.79,0,0,1-.73-4.45,12.87,12.87,0,0,1,1.36-6,10,10,0,0,1,4-4.18,12.62,12.62,0,0,1,6.45-1.53,14,14,0,0,1,5.17.89,10.09,10.09,0,0,1,3.71,2.48,10.4,10.4,0,0,1,2.22,3.73,14,14,0,0,1,.73,4.59,13.07,13.07,0,0,1-1.36,6,10.21,10.21,0,0,1-4,4.22A12.25,12.25,0,0,1,173,56Zm0-5.45a4.2,4.2,0,0,0,2.76-.9,5.59,5.59,0,0,0,1.63-2.36,8.82,8.82,0,0,0,.54-3.1,8.21,8.21,0,0,0-.62-3.37,4.88,4.88,0,0,0-1.74-2.13,5,5,0,0,0-5.38.09A5.07,5.07,0,0,0,168.45,41a8.93,8.93,0,0,0,0,6.28,5.53,5.53,0,0,0,1.69,2.36A4.38,4.38,0,0,0,173,50.54Z" fill="#231f20"/>
    <path d="M189,55.39V33.1l5.61-.34.29,3.87h.56a12.06,12.06,0,0,1,1.79-2,7.92,7.92,0,0,1,2.37-1.53,7.69,7.69,0,0,1,3.08-.59,5.69,5.69,0,0,1,4,1.29,6.6,6.6,0,0,1,1.91,3.7l.45.06c.09.43.16.89.21,1.35a14.11,14.11,0,0,1,.08,1.49v15h-6.68V42.52a5.74,5.74,0,0,0-.61-3,2.36,2.36,0,0,0-2.18-1,3.53,3.53,0,0,0-1.68.4A5.53,5.53,0,0,0,196.76,40a9.25,9.25,0,0,0-1.12,1.44V55.39Zm27.21,0V42.52a5.85,5.85,0,0,0-.6-3,2.37,2.37,0,0,0-2.19-1,3.64,3.64,0,0,0-1.68.39,5.31,5.31,0,0,0-1.39,1,8.49,8.49,0,0,0-1.13,1.46l-1-4.8h.58a13.36,13.36,0,0,1,1.88-2.05,8.44,8.44,0,0,1,2.47-1.54,8,8,0,0,1,3.14-.59,6.07,6.07,0,0,1,5,2,9.15,9.15,0,0,1,1.64,5.89v15Z" fill="#231f20"/>
    <path d="M233.19,55.93a6.67,6.67,0,0,1-3.35-.81,5.57,5.57,0,0,1-2.23-2.28,7,7,0,0,1-.81-3.44,6.93,6.93,0,0,1,.67-3.2,6.26,6.26,0,0,1,1.73-2.09,7.89,7.89,0,0,1,2.33-1.23,15.83,15.83,0,0,1,2.46-.62l6.21-1a3,3,0,0,0-.47-2,2.76,2.76,0,0,0-1.56-1,8.7,8.7,0,0,0-2.43-.29,12.07,12.07,0,0,0-1.64.12,16.36,16.36,0,0,0-1.88.37,21,21,0,0,0-2,.61c-.69.25-1.38.54-2.08.86l-.31-5.67c.55-.21,1.18-.42,1.9-.63s1.49-.4,2.33-.58a23.38,23.38,0,0,1,2.65-.4c.92-.09,1.87-.13,2.86-.13a12.89,12.89,0,0,1,4.78.8,6.15,6.15,0,0,1,3,2.55,8.73,8.73,0,0,1,1,4.55v15h-5.74l-.42-3h-.49a9.1,9.1,0,0,1-1.53,1.68,7.46,7.46,0,0,1-5,1.85Zm2.66-5.14a3.51,3.51,0,0,0,1.55-.38,5.49,5.49,0,0,0,1.45-1.06A6.75,6.75,0,0,0,240,47.73V44.31a3.47,3.47,0,0,1-.67.37,9.45,9.45,0,0,1-1.21.36l-2.23.48a3.72,3.72,0,0,0-1.38.53,2.75,2.75,0,0,0-.89,1,2.84,2.84,0,0,0-.33,1.4,2.06,2.06,0,0,0,.78,1.82A2.89,2.89,0,0,0,235.85,50.79Z" fill="#231f20"/>
    <path d="M249.56,38.12v-5h16.85v5ZM261,56a10.74,10.74,0,0,1-4.23-.75,5.36,5.36,0,0,1-2.68-2.4,8.83,8.83,0,0,1-.93-4.35V25.86l6.57-1.18V46.39a5.34,5.34,0,0,0,.75,3.09,2.77,2.77,0,0,0,2.44,1.06,5.49,5.49,0,0,0,1.57-.25,5.68,5.68,0,0,0,1.63-.82l.38,5.41a5.9,5.9,0,0,1-1.48.6,14.5,14.5,0,0,1-1.94.38A16.25,16.25,0,0,1,261,56Z" fill="#231f20"/>
    <path d="M280.88,56a13.31,13.31,0,0,1-5.28-1,10.19,10.19,0,0,1-3.71-2.61,10.79,10.79,0,0,1-2.19-3.79,13.79,13.79,0,0,1-.73-4.45,13,13,0,0,1,1.35-6,10.14,10.14,0,0,1,4-4.18,12.61,12.61,0,0,1,6.44-1.53,14,14,0,0,1,5.18.89,10,10,0,0,1,3.7,2.48,10.43,10.43,0,0,1,2.23,3.73,14,14,0,0,1,.73,4.59,13.07,13.07,0,0,1-1.36,6,10.21,10.21,0,0,1-4,4.22A12.25,12.25,0,0,1,280.88,56Zm0-5.45a4.2,4.2,0,0,0,2.76-.9,5.59,5.59,0,0,0,1.63-2.36,8.82,8.82,0,0,0,.54-3.1,8.38,8.38,0,0,0-.62-3.37,4.88,4.88,0,0,0-1.74-2.13,5,5,0,0,0-5.38.09A5.07,5.07,0,0,0,276.36,41a8.93,8.93,0,0,0,0,6.28,5.53,5.53,0,0,0,1.69,2.36A4.38,4.38,0,0,0,280.86,50.54Z" fill="#231f20"/>
    <path d="M296.87,55.39V33.1l5.61-.34.29,3.89h.56a10.9,10.9,0,0,1,1.83-2,8.41,8.41,0,0,1,2.47-1.53,8.16,8.16,0,0,1,3.18-.59,6.36,6.36,0,0,1,5.07,2q1.72,2,1.72,5.91v15h-6.66V42.52a5.51,5.51,0,0,0-.64-3,2.58,2.58,0,0,0-2.33-1,4,4,0,0,0-1.76.39,5.56,5.56,0,0,0-1.48,1,8.77,8.77,0,0,0-1.18,1.46V55.39Z" fill="#231f20"/>
    <path d="M333.88,56a14.36,14.36,0,0,1-7-1.52,9.37,9.37,0,0,1-4-4.18,13.63,13.63,0,0,1-1.3-6.09,14.43,14.43,0,0,1,1.22-6.07A9.25,9.25,0,0,1,326.37,34a11.19,11.19,0,0,1,5.95-1.47,11.51,11.51,0,0,1,5.2,1.07,7.35,7.35,0,0,1,3.33,3.26A11.64,11.64,0,0,1,342,42.37c0,.59,0,1.13,0,1.59a12.39,12.39,0,0,1-.16,1.38l-5.71-2.17c0-.21,0-.41.06-.61s0-.4,0-.59a5.34,5.34,0,0,0-1.06-3.52,3.38,3.38,0,0,0-2.75-1.29,3.6,3.6,0,0,0-2.24.75A5,5,0,0,0,328.59,40a8.31,8.31,0,0,0-.56,3.19v1.1a7.35,7.35,0,0,0,.71,3.34,4.67,4.67,0,0,0,2.17,2.13,8.48,8.48,0,0,0,3.78.74,13.78,13.78,0,0,0,2.06-.18,17.72,17.72,0,0,0,2.39-.53,12,12,0,0,0,2.27-.88l.23,5.63a14.35,14.35,0,0,1-2,.73,19.64,19.64,0,0,1-2.6.51A23.6,23.6,0,0,1,333.88,56ZM324.1,45.34V41.79l13.83-.29,3.88,1.07v2.77Z" fill="#231f20"/>
  </g>
</svg>
