<?xml version="1.0" encoding="utf-8"?>
<!-- Generator: Adobe Illustrator 24.3.0, SVG Export Plug-In . SVG Version: 6.00 Build 0)  -->
<svg version="1.1" id="sound-vibrations" xmlns="http://www.w3.org/2000/svg" xmlns:xlink="http://www.w3.org/1999/xlink" x="0px"
	 y="0px" viewBox="0 0 100 70" style="enable-background:new 0 0 100 70;" xml:space="preserve">
<style type="text/css">
	.st0{clip-path:url(#SVGID_2_);}
	.st1{fill:none;stroke:#000000;stroke-width:0.5;stroke-linecap:round;}
	.st2{fill:none;stroke:#000000;stroke-width:2;}
</style>
<g>
	<defs>
		<path id="SVGID_1_" d="M2,0h96c1.1,0,2,0.9,2,2v66c0,1.1-0.9,2-2,2H2c-1.1,0-2-0.9-2-2V2C0,0.9,0.9,0,2,0z"/>
	</defs>
	<clipPath id="SVGID_2_">
		<use xlink:href="#SVGID_1_"  style="overflow:visible;"/>
	</clipPath>
	<g class="st0">
		<g transform="translate(11.89105807053849,0)">
			<circle cx="0" cy="35" r="4.5"/>
		</g>
		<circle class="st1" cx="11.9" cy="35" r="4"/>
		<circle class="st1" cx="8.5" cy="35" r="8"/>
		<circle class="st1" cx="6.5" cy="35" r="12"/>
		<circle class="st1" cx="7.7" cy="35" r="16"/>
		<circle class="st1" cx="11" cy="35" r="20"/>
		<circle class="st1" cx="13.4" cy="35" r="24"/>
		<circle class="st1" cx="12.6" cy="35" r="28"/>
		<circle class="st1" cx="9.5" cy="35" r="32"/>
		<circle class="st1" cx="6.8" cy="35" r="36"/>
		<circle class="st1" cx="7.1" cy="35" r="40"/>
		<circle class="st1" cx="10" cy="35" r="44"/>
		<circle class="st1" cx="13" cy="35" r="48"/>
		<circle class="st1" cx="13.2" cy="35" r="52"/>
		<circle class="st1" cx="10.5" cy="35" r="56"/>
		<circle class="st1" cx="7.3" cy="35" r="60"/>
		<circle class="st1" cx="6.6" cy="35" r="64"/>
		<circle class="st1" cx="9" cy="35" r="68"/>
		<circle class="st1" cx="12.3" cy="35" r="72"/>
		<circle class="st1" cx="13.5" cy="35" r="76"/>
		<circle class="st1" cx="11.4" cy="35" r="80"/>
		<circle class="st1" cx="8.1" cy="35" r="84"/>
		<circle class="st1" cx="6.5" cy="35" r="88"/>
		<circle class="st1" cx="8.1" cy="35" r="92"/>
		<circle class="st1" cx="11.5" cy="35" r="96"/>
		<path class="st2" d="M2,0h96c1.1,0,2,0.9,2,2v66c0,1.1-0.9,2-2,2H2c-1.1,0-2-0.9-2-2V2C0,0.9,0.9,0,2,0z"/>
	</g>
</g>
</svg>
