<svg id="Layer_2" data-name="Layer 2" xmlns="http://www.w3.org/2000/svg" viewBox="0 0 198.43 198.43">
  <g>
    <g>
      <path d="M169.47,83.62c-4.17-3.19-3.11-2.4-15.62.95,19.35-4.82,26.67,24.44,7.29,29.27-5.41,1.35-15.35-2.15,4.62,3.2A19.65,19.65,0,0,0,169.47,83.62Z" fill="#ebebec"/>
      <path d="M139.22,59.22c14.36-13.82,35.29,7.89,20.9,21.73-4,3.86-14.26,5.76,5.64.44,9.14-12.87-.08-31-16.07-31C147.47,50.41,149.09,49.34,139.22,59.22Z" fill="#ebebec"/>
      <path d="M113.87,153.83c4.82,19.36-24.44,26.68-29.27,7.31-1.35-5.41,2.17-15.38-3.2,4.61,7,15.23,28.74,15.09,35.66,0Z" fill="#231f20"/>
      <path d="M59.24,139.2C44.89,153,23.93,131.35,38.3,117.5c4-3.88,14.34-5.8-5.6-.46-9.62,13.55,1.09,32.36,17.81,30.89Z" fill="#ebebec"/>
      <path d="M139.22,139.2c13.82,14.36-7.88,35.29-21.72,20.91-3.91-4.05-5.8-14.36-.44,5.64a19.68,19.68,0,0,0,30.8-13.51C148.52,147.17,148.46,148.44,139.22,139.2Z" fill="#ebebec"/>
      <path d="M153.85,113.85c19.16,5.52,10.83,34.51-8.35,29-5.33-1.54-12.16-9.51,2.44,5.09,16.95,1.49,27.29-17.56,17.82-30.88Z" fill="#231f20"/>
      <path d="M84.59,153.83c-5.52,19.16-34.51,10.83-29-8.35,1.54-5.33,9.51-12.16-5.1,2.45C48.94,164.71,68,175.26,81.4,165.75Z" fill="#ebebec"/>
      <path d="M84.6,44.58C79.78,25.24,109,17.92,113.86,37.29c1.35,5.42-2.16,15.34,3.2-4.62-6.94-15.2-28.72-15.11-35.65,0Z" fill="#ebebec"/>
      <path d="M113.86,44.58c5.52-19.16,34.51-10.84,29,8.34-1.55,5.4-9.48,12.14,5.09-2.43,1.57-16.77-17.43-27.36-30.88-17.82Z" fill="#231f20"/>
      <path d="M59.24,59.22C45.41,44.85,67.12,23.92,81,38.31c3.85,4,5.77,14.28.45-5.63A19.66,19.66,0,0,0,50.6,46.18C49.92,51.31,50.05,50,59.24,59.22Z" fill="#231f20"/>
      <path d="M44.6,113.85C25.25,118.66,18,89.39,37.33,84.58c5.37-1.33,15.17,2.1-4.2-3.08a1.22,1.22,0,0,0-.84.08c-14.77,7.15-14.54,28.21,0,35.27C32.86,117.12,32.23,117.16,44.6,113.85Z" fill="#231f20"/>
      <path d="M45.16,84.51C26,79,33.78,50.06,53,55.6c5.42,1.56,12.18,9.53-2.45-5.11A19.67,19.67,0,0,0,30.6,77.6C32.61,82.43,32.56,81.39,45.16,84.51Z" fill="#ebebec"/>
    </g>
    <g>
      <path d="M85.09,151.28c4.63-16.37,4.85-23.6,13.32-24.26,0-15.54.68-10.29-6.86-14.69-3.79-2.22-3.39-1-28.39,24A15.08,15.08,0,0,1,85.09,151.28Z" fill="#ededee"/>
      <path d="M114.18,99.32c0,8.66-4.06,5.51,9,13.05a9.34,9.34,0,0,1,10.44-4c38.24,10.11,1.7,5.09,10-14.91,3.52-8.49,19.56-10.53-26.42,1.8A4.1,4.1,0,0,0,114.18,99.32Z" fill="#ededee"/>
      <path d="M113.9,154c.1,0,0,0-.11-.43A3,3,0,0,1,113.9,154Z" fill="#ededee"/>
      <path d="M122.46,113.62c-13.31-7.69-9-5.21-15.81-1.26-7.49,4.31-6.81-.81-6.81,14.65,8.66.56,9,8,14,26.57C110.15,140,125.56,129.29,137,137.33,125.22,125.19,118.89,121.36,122.46,113.62Z" fill="#ededee"/>
      <path d="M139,59.41l-.07.08Z" fill="#ededee"/>
      <path d="M139.19,59.26l-.16.15Z" fill="#ededee"/>
      <path d="M136.64,77.61c-6.47-11.19,4.18-19.9,1.91-17.69-12.47,12.22-16.68,20.26-25,15.88-4,7-6.83,9.77-3.74,12.87,7,7-3.49,8,39.5-3.53A15,15,0,0,1,136.64,77.61Z" fill="#ededee"/>
      <path d="M113.8,44.84c-4,14.9-25.18,14.83-29.14,0a14.92,14.92,0,0,1,.51,3.63c4,13.55,8.72,21.58.87,26.76C89.93,82,91,86,95.23,84.78c11.11-3.07,7.43,7,17.07-9.73C105.66,70.27,108.61,64.4,113.8,44.84Z" fill="#ededee"/>
      <path d="M84.59,44.55c-.1,0,0-.06.07.29C84.63,44.75,84.62,44.65,84.59,44.55Z" fill="#ededee"/>
      <path d="M113.87,44.61h0C113.77,44.92,113.78,44.91,113.87,44.61Z" fill="#ededee"/>
      <path d="M64.1,108.79c-36.49,9.94-2.39-3.65-.33,18.14.83,8.78-11.74,18.45,21.78-15.06,2.77-2.76-.11-5.33-1-8.72C83.46,98.78,78.21,100,71.13,100A9.35,9.35,0,0,1,64.1,108.79Z" fill="#ededee"/>
      <path d="M73.91,74.07c-27.79-27.55,1.57-4.76-16.28,8.21C49,88.53,40.43,82.2,47.5,85.63,63,90,70.29,90.22,71.09,98.6c8.65,0,12.38,1,13.49-3.18,1.81-6.82,7.07-7.6,4.67-11.75l-4.47-7.74A9.42,9.42,0,0,1,73.91,74.07Z" fill="#ededee"/>
      <path d="M44.43,84.51c0,.1-.11,0,.43.13Z" fill="#ededee"/>
      <path d="M113.37,47.2c-4.33,16.39-8,22.86-1.07,27.85,4.9,3,9.24,2.1,12.29-.86,15.12-15.47,14.33-14.65,14.4-14.75C129.1,69.26,111.93,61.28,113.37,47.2Z" fill="#231f20"/>
      <path d="M59.18,59.14c-.79-.82-1.31-1.59-.62-.53C59.35,59.28,59.08,59.24,59.18,59.14Z" fill="#231f20"/>
      <path d="M86,75.23a9.19,9.19,0,0,0,4-10.28c-9.54-34.82.58-11.89-12.13-3.9-3.41,3.75-12.64,4.21-18.5-1.64C72.63,72.65,76.61,80.5,86,75.23Z" fill="#231f20"/>
      <path d="M59.18,59.14l0,0C59.5,59.48,59.52,59.51,59.18,59.14Z" fill="#231f20"/>
      <path d="M44.37,113.9c-1.09.25-3.36.49-1.09.4C44.42,113.86,44.39,114,44.37,113.9Z" fill="#231f20"/>
      <path d="M44.37,113.9c0,.1-.07,0,.49-.12Z" fill="#231f20"/>
      <path d="M71.09,98.6C70.29,90,61.55,89.23,46.65,85c11.64,5.62,11.13,25.3-1.79,28.77C61.65,109.29,71.37,109.74,71.09,98.6Z" fill="#231f20"/>
      <path d="M84.52,154.06c-.27.91-.34.71-.25,1.5C84.48,154,84.62,154.07,84.52,154.06Z" fill="#231f20"/>
      <path d="M84.52,154.06c.1,0,0,.09.14-.48C84.62,153.75,84.57,153.9,84.52,154.06Z" fill="#231f20"/>
      <path d="M99.84,127c-10.44-.67-11,10.68-15.18,26.57,3.79-14.1,23.53-15.14,28.69-1.38C108.54,134.49,108.37,127.57,99.84,127Z" fill="#231f20"/>
      <path d="M153.88,113.86c.69.2.9.31.5.1C153.78,113.83,153.9,113.76,153.88,113.86Z" fill="#231f20"/>
      <path d="M139.28,139.28c.59.64.45.54.82.7C139.06,139.12,139.38,139.18,139.28,139.28Z" fill="#231f20"/>
      <path d="M153.88,113.86h0C153.53,113.76,153.48,113.75,153.88,113.86Z" fill="#231f20"/>
      <path d="M122.46,113.62c4.6-9.92,14.57-4.24,31.14.16-14.75-4-25.51,14.29-14.57,25.23C126.44,126.43,118.71,121.73,122.46,113.62Z"/>
      <path d="M139.28,139.28h0C138.93,138.91,139,138.94,139.28,139.28Z" fill="#231f20"/>
      <path d="M84.05,44.7c.07.21-.12-.44,1.12,3.77C85.16,47.82,85.05,44.44,84.05,44.7Z" fill="#ededee"/>
      <path d="M59.06,59.25c.11-.11.23,0-.5-.64C58.62,58.71,59,59.36,59.06,59.25Z" fill="#231f20"/>
      <path d="M59.06,59.25c.11-.11.23,0-.5-.64C58.62,58.71,59,59.36,59.06,59.25Z" fill="#eb0d8c"/>
      <path d="M59.16,59.16c-.16.16-.43-.17,1.81,2.05A14.55,14.55,0,0,0,59.16,59.16Z" fill="#231f20"/>
      <path d="M59.16,59.16c-.16.16-.43-.17,1.81,2.05A14.55,14.55,0,0,0,59.16,59.16Z" fill="#eb0d8c"/>
      <path d="M44.37,84.75l3.13.88C47.22,85.5,44.51,84.25,44.37,84.75Z" fill="#ededee"/>
      <path d="M44.37,84.75l3.13.88C47.22,85.5,44.51,84.25,44.37,84.75Z" fill="#922a8e"/>
      <path d="M44.39,114.13c.1,0,.28-.38-1.11.17A4.59,4.59,0,0,0,44.39,114.13Z" fill="#231f20"/>
      <path d="M44.39,114.13c.1,0,.28-.38-1.11.17A4.59,4.59,0,0,0,44.39,114.13Z" fill="#2e3690"/>
      <path d="M44.86,113.78c-1.52.41.61.06,2.48-.45A14.82,14.82,0,0,0,44.86,113.78Z" fill="#231f20"/>
      <path d="M44.86,113.78c-1.52.41.61.06,2.48-.45A14.82,14.82,0,0,0,44.86,113.78Z" fill="#2e3690"/>
      <path d="M84.46,154.05c-.11,0-.21-.17-.22.84C84.28,154.79,84.56,154.08,84.46,154.05Z" fill="#231f20"/>
      <path d="M84.46,154.05c-.11,0-.21-.17-.22.84C84.28,154.79,84.56,154.08,84.46,154.05Z" fill="#0d73bb"/>
      <path d="M85.09,151.28c-.88,3.07-.84,2.72-.57,2.78A14.59,14.59,0,0,0,85.09,151.28Z" fill="#231f20"/>
      <path d="M85.09,151.28c-.88,3.07-.84,2.72-.57,2.78A14.59,14.59,0,0,0,85.09,151.28Z" fill="#0d73bb"/>
      <path d="M113.35,152.2c.32,1.16.76,2.55.45,1.38Q113.61,152.88,113.35,152.2Z" fill="#ededee"/>
      <path d="M113.35,152.2c.32,1.16.76,2.55.45,1.38Q113.61,152.88,113.35,152.2Z" fill="#2bace2"/>
      <path d="M139.19,139.38c-.1.09.49.4.59.45C139.23,139.18,139.3,139.26,139.19,139.38Z" fill="#231f20"/>
      <path d="M139.19,139.38c-.1.09.49.4.59.45C139.23,139.18,139.3,139.26,139.19,139.38Z" fill="#00a99d"/>
      <path d="M137,137.33c2.32,2.38,2,2.15,2.26,1.95A16.35,16.35,0,0,0,137,137.33Z" fill="#231f20"/>
      <path d="M137,137.33c2.32,2.38,2,2.15,2.26,1.95A16.35,16.35,0,0,0,137,137.33Z" fill="#00a99d"/>
      <path d="M153.89,113.85c.58.15.72.18,0-.1C153.9,113.78,153.9,113.81,153.89,113.85Z" fill="#88c541"/>
      <path d="M151.73,113.13c2.27,1,2.74.73,1.62.43Z" fill="#88c541"/>
      <path d="M139,59.49l-.22.24Z" fill="#fcee23"/>
      <path d="M139,59.44c.23-.27.27-.11.17-.21Z" fill="#f89521"/>
      <path d="M113.37,47.2c.81-3.09.54-2.79.43-2.36A14.81,14.81,0,0,0,113.37,47.2Z" fill="#f89521"/>
    </g>
    <g id="круги">
      <path d="M84.66,44.84c-5.16-19.26,24-27.09,29.13-7.81S89.83,64.11,84.66,44.84Z" fill="#ef372f"/>
      <path d="M59.42,59.41C45.33,45.3,66.64,24,80.75,38.09S73.57,73.55,59.42,59.41Z" fill="#e21a58"/>
      <path d="M44.86,84.64C25.6,79.48,33.38,50.35,52.67,55.51S64.14,89.81,44.86,84.64Z" fill="#eb0d8c"/>
      <path d="M44.86,113.78c-19.26,5.16-27.09-24-7.81-29.13S64.12,108.61,44.86,113.78Z" fill="#922a8e"/>
      <path d="M59.42,139C45.32,153.11,24,131.8,38.1,117.68S73.55,124.89,59.42,139Z" fill="#2e3690"/>
      <path d="M84.66,153.58c-5.16,19.26-34.3,11.48-29.13-7.81S89.83,134.29,84.66,153.58Z" fill="#0d73bb"/>
      <path d="M113.8,153.58c5.15,19.26-24,27.09-29.13,7.8S108.63,134.29,113.8,153.58Z" fill="#2bace2"/>
      <path d="M139,139c14.1,14.1-7.21,35.44-21.32,21.32S124.91,124.89,139,139Z" fill="#00a99d"/>
      <path d="M153.6,113.78c19.26,5.16,11.48,34.3-7.81,29.13S134.31,108.61,153.6,113.78Z" fill="#06a64f"/>
      <path d="M153.6,84.64c19.26-5.15,27.08,24,7.8,29.13S134.34,89.8,153.6,84.64Z" fill="#88c541"/>
      <path d="M139,59.41c14.1-14.1,35.44,7.21,21.32,21.32S124.89,73.55,139,59.41Z" fill="#fcee23"/>
      <path d="M113.8,44.84c5.16-19.26,34.29-11.48,29.13,7.81S108.63,64.13,113.8,44.84Z" fill="#f89521"/>
    </g>
  </g>
  <g id="Layer_2-2" data-name="Layer 2">
    <g id="квинты">
      <path d="M74.21,143.25c-.66,0,24.75-94.74,25-94.7S74.58,143.25,74.21,143.25Z" fill="#939598"/>
      <path d="M95,64.84c-.26,0-2.92-6.35-2.43-6.54s1.82,4.58,2.64,6.12A.26.26,0,0,1,95,64.84Z" fill="#939598"/>
      <path d="M99.87,60.92a.26.26,0,0,1,.3.43C94.55,65.4,92.32,66.36,99.87,60.92Z" fill="#939598"/>
      <path d="M99.11,149.86c-.79,0-27.11-101.28-25.23-94.35C101.26,156.48,99.62,149.84,99.11,149.86Z" fill="#939598"/>
      <path d="M77.92,71.55c-.17,0-5.62-4.06-5.28-4.47s2.29,1.89,5.35,4A.26.26,0,0,1,77.92,71.55Z" fill="#939598"/>
      <path d="M78,71.28a.26.26,0,0,1-.15-.48c.63-.84,2.33-5.42,2.8-5.22S78.3,71.33,78,71.28Z" fill="#939598"/>
      <path d="M124.61,142.93c-.76,0-73.87-74.1-68.88-69.13C125.42,143.3,125.57,142.94,124.61,142.93Z" fill="#939598"/>
      <path d="M67,85.72c-.2,0-6.67-.8-6.59-1.27S70.09,85.72,67,85.72Z" fill="#939598"/>
      <path d="M67,85.46a.26.26,0,0,1-.23-.37c.16-1.48-.74-5.86-.21-6S67.57,85.45,67,85.46Z" fill="#939598"/>
      <path d="M142.71,125.19C141.65,125.32,42,97.09,48.83,99,129.47,120.94,146.09,125.27,142.71,125.19Z" fill="#939598"/>
      <path d="M58.42,106.07c-2.18,0,6-2.81,6-2.82C66.57,103.28,58.53,106.07,58.42,106.07Z" fill="#939598"/>
      <path d="M64.26,103.57c-.28,0,.32.33-3.4-4.94a.26.26,0,1,1,.42-.3C63.81,101.89,65,103.56,64.26,103.57Z" fill="#939598"/>
      <path d="M55.5,124.64c-3.24,0,94.17-26.2,94.26-25.8S55.6,124.62,55.5,124.64Z" fill="#939598"/>
      <path d="M67.17,125.42C66,125.43,69,122.94,71,120a.26.26,0,0,1,.46,0C71.59,120.23,67.37,125.42,67.17,125.42Z" fill="#939598"/>
      <path d="M70.94,120.32c-.48,0,1.63.53-5.31-2.57a.26.26,0,0,1,.22-.48C67.34,117.93,72.73,120.29,70.94,120.32Z" fill="#939598"/>
      <path d="M74.21,143.25c-1.26,0,68.72-69.67,68.87-69.52C143.44,74.09,74.31,143.25,74.21,143.25Z" fill="#939598"/>
      <path d="M84.7,138.1a.26.26,0,0,1-.26-.3C87,122.46,85.46,138.1,84.7,138.1Z" fill="#939598"/>
      <path d="M79.63,132.18a.26.26,0,0,1,0-.52c5.25-.4,6.37-.6,6,0C85.58,131.75,86.28,131.79,79.63,132.18Z" fill="#939598"/>
      <path d="M99.11,149.86c-.67.08,24.76-94.75,25-94.68C124.59,55.31,99.37,149.86,99.11,149.86Z" fill="#939598"/>
      <path d="M105.63,140.15c-.18,0-3-6.56-2.34-6.56C103.57,133.59,106.36,140.16,105.63,140.15Z" fill="#939598"/>
      <path d="M98.27,137.55c-1.55,0,5.07-4.44,5.07-3.49C103.34,134.12,98.34,137.55,98.27,137.55Z" fill="#939598"/>
      <path d="M124.64,143.11c-.37,0-29.07-105.77-25.24-94.35C126.76,149.7,125.14,143.09,124.64,143.11Z" fill="#939598"/>
      <path d="M125.39,131.27c-.1,0-5.68-4.24-5.17-4.54C120.5,126.57,126.71,131.27,125.39,131.27Z" fill="#939598"/>
      <path d="M117.74,132.7a.26.26,0,0,1-.24-.37C123.09,119.91,118.6,132.7,117.74,132.7Z" fill="#939598"/>
      <path d="M55.37,124.77c-1,0,68.57-69.83,68.87-69.52S55.47,124.77,55.37,124.77Z" fill="#939598"/>
      <path d="M113.3,60.54a.26.26,0,0,1,.52.09C112.32,70.74,111.81,68.57,113.3,60.54Z" fill="#939598"/>
      <path d="M113.29,67.19c-.38,0-.89,0-.66-.42s-.48.12,6-.53C119.11,66.23,119.88,67.19,113.29,67.19Z" fill="#939598"/>
      <path d="M48.76,99.48C44.59,99.6,143,73.32,143,73.69S48.87,99.48,48.76,99.48Z" fill="#939598"/>
      <path d="M130.91,72.78a.27.27,0,0,1,.43.31C127.44,78.63,123.73,81.48,130.91,72.78Z" fill="#939598"/>
      <path d="M132.55,80.86c-.18,0-5.45-2.29-5.46-2.78a.26.26,0,0,1,.47-.17C128.18,78.37,134.27,80.85,132.55,80.86Z" fill="#939598"/>
      <path d="M149.7,99.2c-1.37,0-101.46-27.33-94.1-25.46C55.7,73.76,152.86,99.2,149.7,99.2Z" fill="#939598"/>
      <path d="M133.78,95c-1.94,0,4.15-2.18,5.93-2.85a.26.26,0,1,1,.19.49C133.12,95.18,133.89,95,133.78,95Z" fill="#939598"/>
      <path d="M137.21,100c-.25,0-3.65-4.82-3.46-5.18a.27.27,0,0,1,.5.09C134.9,96.43,138.24,100,137.21,100Z" fill="#939598"/>
      <path d="M142.7,124.52c-.74,0-73.87-74.11-68.88-69.13C142.66,124,143.76,124.55,142.7,124.52Z" fill="#939598"/>
      <path d="M137.56,114.7c-.11,0-5.71-1-6.37-1a.26.26,0,0,1-.25-.39C131.3,112.72,139.79,114.62,137.56,114.7Z" fill="#939598"/>
      <path d="M131.64,119.77c-.49,0-.83-6.07-.54-6.26a.27.27,0,0,1,.39.34C131.36,115,132.2,119.93,131.64,119.77Z" fill="#939598"/>
    </g>
    <g id="ноты">
      <path d="M102.79,44c-2,0-1.5.35-2.06-1.35-3.61,0-2.89-.36-3.46,1.35-2.16,0-2.13,1.51,1-7.53C100.76,36.46,99.64,35,102.79,44Zm-3.56-5.82c-1.3,3.88-1.65,3.08,1,3.08Z" fill="#ededee"/>
      <g>
        <path d="M128.45,52.28c-2,0-1.49.35-2.06-1.36-3.6,0-2.89-.35-3.46,1.36-2.16,0-2.13,1.5,1-7.53C126.42,44.75,125.3,43.29,128.45,52.28Zm-3.56-5.83c-1.3,3.88-1.66,3.08,1,3.08Z" fill="#ededee"/>
        <path d="M134.86,47c-.21,1.32.13,1.05-1.33,1.05-.21,1.26-.46,1,1,1-.22,1.31.13,1-1.35,1-.35,2.11,0,1.7-1.38,1.7.35-2.14.61-1.7-.82-1.7-.34,2.1,0,1.7-1.37,1.7.36-2.14.64-1.7-.89-1.7.22-1.31-.13-1,1.36-1,.21-1.26.47-1-1-1,.21-1.33-.14-1.05,1.36-1.05.35-2.1,0-1.7,1.37-1.7-.35,2.14-.61,1.7.81,1.7.35-2.11,0-1.7,1.38-1.7C133.63,47.4,133.35,47,134.86,47Zm-3.69,2c1.38,0,1.06.25,1.26-1C131.06,48,131.38,47.77,131.17,49Z" fill="#ededee"/>
      </g>
      <path d="M157.84,103.27c-6.69,0-4-10.58,1.89-7.35,2.33,1.27.75,1.64.07,2-1.5-2.71-6.35.19-3.74,3.18a2.45,2.45,0,0,0,3.74-.38c.68.4,2.25.77-.07,2A4,4,0,0,1,157.84,103.27Z" fill="#ededee"/>
      <g>
        <path d="M147.19,132.48c-6.69.05-4-10.59,1.89-7.35,2.32,1.27.75,1.65.07,2a2.42,2.42,0,0,0-3.73-.39,2.5,2.5,0,0,0,2.94,4c1.33-.69,0-1.25,2.07,0A3.75,3.75,0,0,1,147.19,132.48Z" fill="#ededee"/>
        <path d="M157.11,127c-.22,1.33.13,1.05-1.33,1.05-.21,1.27-.47,1,1,1-.22,1.32.13,1-1.36,1-.35,2.1,0,1.69-1.38,1.69.36-2.13.61-1.69-.81-1.69-.35,2.1,0,1.69-1.37,1.69.35-2.13.63-1.69-.89-1.69.22-1.32-.14-1,1.36-1,.21-1.26.47-1-1-1,.22-1.32-.14-1.05,1.37-1.05.34-2.1,0-1.7,1.36-1.7-.35,2.14-.61,1.7.82,1.7.35-2.11,0-1.7,1.38-1.7C155.88,127.47,155.61,127,157.11,127Zm-3.69,2c1.38,0,1.05.26,1.26-1C153.3,128.08,153.62,127.83,153.42,129.05Z" fill="#ededee"/>
      </g>
      <path d="M125.59,146.12c2.91,0,4.34-.25,5.57,1.08,2.27,2.45.6,6.49-2.58,6.45C124.59,153.6,125.59,155.15,125.59,146.12Zm1.49,6.11c1.68,0,2.39.12,3.1-.65a2.62,2.62,0,0,0,0-3.39c-.85-.92-2.06-.66-3.1-.66Z" fill="#ededee"/>
      <g>
        <path d="M92.87,154c2.86,0,4.31-.27,5.57,1.09,2.26,2.44.61,6.48-2.59,6.44C91.88,161.52,92.87,163.07,92.87,154Zm1.48,6.11c1.74,0,2.39.12,3.1-.65a2.59,2.59,0,0,0,0-3.39c-.85-.92-2.06-.65-3.1-.65Z" fill="#ededee"/>
        <path d="M106.22,156.27c-.22,1.32.13,1-1.34,1-.2,1.26-.46,1,1,1-.22,1.31.13,1-1.36,1-.35,2.11,0,1.7-1.38,1.7.36-2.14.62-1.7-.81-1.7-.35,2.1,0,1.7-1.37,1.7.35-2.13.64-1.7-.89-1.7.21-1.31-.14-1,1.35-1,.21-1.26.47-1-1-1,.22-1.33-.14-1,1.37-1,.34-2.11,0-1.7,1.37-1.7-.35,2.14-.61,1.7.82,1.7.35-2.11,0-1.7,1.37-1.7C105,156.71,104.72,156.27,106.22,156.27Zm-3.69,2c1.38,0,1.06.25,1.26-1C102.41,157.32,102.73,157.07,102.53,158.29Z" fill="#ededee"/>
      </g>
      <path d="M69.67,150.21c0,2.25-.72,1.69,3.18,1.69,0,1.9.92,1.43-4.66,1.43,0-9.5-1.39-7.54,4.6-7.54,0,1.89.63,1.42-3.12,1.42,0,2.09-.72,1.6,2.86,1.6C72.53,150.67,73.17,150.21,69.67,150.21Z" fill="#ededee"/>
      <path d="M50.75,124.92c0,1.88.69,1.42-3,1.42,0,2.32-.76,1.79,2.93,1.79,0,1.85.73,1.42-2.92,1.42,0,3.6.46,2.9-1.49,2.9C46.26,123,45,124.92,50.75,124.92Z" fill="#ededee"/>
      <g>
        <path d="M40.52,95.59c0,1.88.69,1.42-3,1.42,0,2.32-.76,1.79,2.93,1.79,0,1.85.74,1.42-2.92,1.42,0,3.61.46,2.9-1.49,2.9C36,93.64,34.67,95.59,40.52,95.59Z" fill="#ededee"/>
        <path d="M47.29,97.82c-.22,1.32.12,1.05-1.34,1.05-.21,1.26-.46,1,1,1-.21,1.31.14,1-1.35,1-.35,2.11,0,1.7-1.38,1.7.35-2.14.61-1.7-.82-1.7-.34,2.1,0,1.7-1.36,1.7.35-2.14.63-1.7-.9-1.7.22-1.31-.13-1,1.36-1,.21-1.26.47-1-1-1,.21-1.33-.14-1.05,1.36-1.05.34-2.11,0-1.7,1.36-1.7-.35,2.13-.61,1.7.82,1.7.35-2.11,0-1.7,1.38-1.7C46.05,98.25,45.77,97.82,47.29,97.82Zm-3.7,2c1.38,0,1.06.25,1.26-1C43.47,98.87,43.79,98.62,43.59,99.84Z" fill="#ededee"/>
      </g>
      <path d="M48.73,69.84c4.42,0,3.77-.19,3.77.59A3.47,3.47,0,0,1,48.8,74c-5.37.08-5.3-7.86-.08-7.83A3.81,3.81,0,0,1,52,68c-2,1.16-.78.65-2.08,0-3.74-1.91-5.45,4.57-1.1,4.65A2.09,2.09,0,0,0,51,71.16C48.2,71.16,48.73,71.58,48.73,69.84Z" fill="#ededee"/>
      <g>
        <path d="M66.72,48.23c4.42,0,3.77-.19,3.77.58a3.48,3.48,0,0,1-3.69,3.62c-6.81.12-4.09-10.52,1.83-7.36,2.34,1.26.76,1.63.09,2a2.34,2.34,0,0,0-2-1c-4.29-.06-2.38,7.05,1.53,4.56A1.81,1.81,0,0,0,69,49.54C66.26,49.54,66.72,49.92,66.72,48.23Z" fill="#ededee"/>
        <path d="M77.23,47C77,48.29,77.36,48,75.9,48c-.21,1.26-.47,1,1,1-.22,1.31.13,1-1.36,1-.34,2.11,0,1.7-1.37,1.7.35-2.14.61-1.7-.82-1.7-.35,2.1,0,1.7-1.37,1.7.35-2.14.63-1.7-.88-1.7.22-1.31-.14-1,1.35-1,.21-1.26.47-1-1-1,.22-1.33-.14-1.05,1.37-1.05.34-2.1,0-1.7,1.36-1.7-.35,2.14-.6,1.7.82,1.7.35-2.11,0-1.7,1.38-1.7C76,47.4,75.73,47,77.23,47Zm-3.69,2c1.38,0,1.06.25,1.26-1C73.42,48,73.75,47.77,73.54,49Z" fill="#ededee"/>
      </g>
      <path d="M151.61,70a2.05,2.05,0,0,1,.31,3.3c-.89.79-1.56.61-4.87.61,0-9-1-7.49,3-7.54A2.09,2.09,0,0,1,151.61,70ZM150,67.75c-1.86,0-1.48-.43-1.48,1.65,1.55,0,1.77.08,2.06-.23A.83.83,0,0,0,150,67.75Zm-1.48,4.75c1.85,0,2,.07,2.33-.25a.92.92,0,0,0,0-1.27c-.32-.34-.54-.25-2.33-.25Z" fill="#ededee"/>
    </g>
  </g>
</svg>
