<svg id="Layer_2" data-name="Layer 2" xmlns="http://www.w3.org/2000/svg" viewBox="0 0 280.53 55.56">
  <g>
    <g>
      <path d="M21.38,33.88a13.05,13.05,0,0,1-4.6-.77,9.86,9.86,0,0,1-3.49-2.23,9.71,9.71,0,0,1-2.22-3.44A12.24,12.24,0,0,1,10.31,23a12.09,12.09,0,0,1,1.28-5.62,9.49,9.49,0,0,1,3.67-3.89A11.13,11.13,0,0,1,21,12.1a15.07,15.07,0,0,1,2,.13,18.29,18.29,0,0,1,1.9.35,17.13,17.13,0,0,1,1.7.51,10.87,10.87,0,0,1,1.4.61l-.37,4.5A14.72,14.72,0,0,0,25.44,17a11.25,11.25,0,0,0-2-.63,9.51,9.51,0,0,0-1.86-.2,6.45,6.45,0,0,0-3.19.79,5.52,5.52,0,0,0-2.2,2.31,7.92,7.92,0,0,0-.8,3.71,8.48,8.48,0,0,0,.41,2.64A6.39,6.39,0,0,0,17,27.86a5.83,5.83,0,0,0,2.08,1.5A7.28,7.28,0,0,0,22,29.9a9.29,9.29,0,0,0,1.39-.1,8.87,8.87,0,0,0,1.41-.3,7.52,7.52,0,0,0,1.41-.56,9.88,9.88,0,0,0,1.41-.88l.26,4.44a8.45,8.45,0,0,1-1.39.62,11.51,11.51,0,0,1-1.61.43,14.29,14.29,0,0,1-1.74.25A17.47,17.47,0,0,1,21.38,33.88Z" fill="#231f20"/>
      <path d="M31.11,33.49V11.93l4.4-.38v9.31h.37A6.58,6.58,0,0,1,37,19.67a5.29,5.29,0,0,1,1.46-.91,4.88,4.88,0,0,1,1.88-.34,4.15,4.15,0,0,1,3.33,1.3,5.75,5.75,0,0,1,1.14,3.89v9.88H40.37V25A3.67,3.67,0,0,0,40,23.07a1.71,1.71,0,0,0-1.53-.65,2.63,2.63,0,0,0-1.16.25,3.69,3.69,0,0,0-1,.7,4.82,4.82,0,0,0-.78,1v9.16Z" fill="#231f20"/>
      <path d="M48.12,33.49V18.82l3.69-.23L52,21.3h.37a5.76,5.76,0,0,1,1.27-1.82,3.88,3.88,0,0,1,1.41-.84,4.61,4.61,0,0,1,1.38-.22,5.5,5.5,0,0,1,.76.06,3.71,3.71,0,0,1,.78.2L57.59,23l-1-.08c-.3,0-.63,0-1,0a4.07,4.07,0,0,0-.84.09,2.6,2.6,0,0,0-.85.35,3.12,3.12,0,0,0-.76.74,4.21,4.21,0,0,0-.62,1.22v8.25Z" fill="#231f20"/>
      <path d="M66.88,33.88a8.86,8.86,0,0,1-3.48-.63A6.78,6.78,0,0,1,61,31.53,7.2,7.2,0,0,1,59.52,29a9,9,0,0,1-.47-2.93,8.61,8.61,0,0,1,.88-3.94,6.65,6.65,0,0,1,2.62-2.74,8.22,8.22,0,0,1,4.24-1A9.16,9.16,0,0,1,70.2,19a6.55,6.55,0,0,1,3.9,4.09,9.24,9.24,0,0,1,.48,3,8.56,8.56,0,0,1-.89,4,6.68,6.68,0,0,1-2.62,2.78A8.08,8.08,0,0,1,66.88,33.88Zm0-3.58a2.71,2.71,0,0,0,1.81-.6,3.71,3.71,0,0,0,1.08-1.55,5.76,5.76,0,0,0,.36-2,5.33,5.33,0,0,0-.42-2.22,3.13,3.13,0,0,0-1.14-1.4,3.33,3.33,0,0,0-3.54.06A3.33,3.33,0,0,0,63.9,24a5.95,5.95,0,0,0,0,4.13A3.7,3.7,0,0,0,65,29.7,2.85,2.85,0,0,0,66.87,30.3Z" fill="#231f20"/>
      <path d="M77.41,33.49V18.82l3.69-.23.19,2.55h.37a8.09,8.09,0,0,1,1.17-1.33,5.42,5.42,0,0,1,1.57-1,5.12,5.12,0,0,1,2-.38,3.77,3.77,0,0,1,2.62.84A4.3,4.3,0,0,1,90.3,21.7l.29,0a7.89,7.89,0,0,1,.14.89,7.59,7.59,0,0,1,.06,1v9.88h-4.4V25a3.79,3.79,0,0,0-.4-1.95,1.57,1.57,0,0,0-1.44-.65,2.38,2.38,0,0,0-1.1.26,3.57,3.57,0,0,0-.91.7,6.21,6.21,0,0,0-.74.95v9.16Zm17.9,0V25a3.9,3.9,0,0,0-.39-1.95,1.57,1.57,0,0,0-1.44-.65,2.41,2.41,0,0,0-1.11.25,3.8,3.8,0,0,0-.92.7,6,6,0,0,0-.74,1l-.66-3.16h.38a9.23,9.23,0,0,1,1.24-1.35,5.63,5.63,0,0,1,1.62-1,5.42,5.42,0,0,1,2.07-.38,4,4,0,0,1,3.27,1.31,6,6,0,0,1,1.08,3.88v9.88Z" fill="#231f20"/>
      <path d="M106.52,33.84a4.46,4.46,0,0,1-2.21-.53,3.66,3.66,0,0,1-1.47-1.5,4.69,4.69,0,0,1-.53-2.26,4.55,4.55,0,0,1,.44-2.11,4.2,4.2,0,0,1,1.14-1.38,5.62,5.62,0,0,1,1.53-.81,11.44,11.44,0,0,1,1.63-.41l4.08-.64a2,2,0,0,0-.31-1.32,1.82,1.82,0,0,0-1-.67,5.93,5.93,0,0,0-1.61-.19,8.6,8.6,0,0,0-1.08.08c-.39,0-.8.14-1.23.24s-.88.25-1.33.41-.91.35-1.37.56L103,19.58c.37-.14.78-.27,1.25-.41s1-.27,1.54-.38a15.1,15.1,0,0,1,1.74-.27c.61-.06,1.24-.09,1.88-.09a8.44,8.44,0,0,1,3.15.53,4,4,0,0,1,2,1.68,5.74,5.74,0,0,1,.69,3v9.85h-3.78l-.28-2h-.32a6.43,6.43,0,0,1-1,1.11,4.76,4.76,0,0,1-1.43.87A4.85,4.85,0,0,1,106.52,33.84Zm1.75-3.38a2.26,2.26,0,0,0,1-.25,3.64,3.64,0,0,0,.95-.7,4.07,4.07,0,0,0,.77-1.07V26.2a2.48,2.48,0,0,1-.44.24,5.41,5.41,0,0,1-.79.23c-.35.09-.84.19-1.47.32a2.6,2.6,0,0,0-.9.35,1.81,1.81,0,0,0-.59.64,1.92,1.92,0,0,0-.22.92,1.37,1.37,0,0,0,.51,1.2A2,2,0,0,0,108.27,30.46Z" fill="#231f20"/>
      <path d="M117.29,22.12v-3.3h11.09v3.3Zm7.55,11.76a7.07,7.07,0,0,1-2.79-.49,3.52,3.52,0,0,1-1.76-1.58,5.8,5.8,0,0,1-.61-2.87V14.05l4.32-.78V27.56a3.53,3.53,0,0,0,.49,2,1.84,1.84,0,0,0,1.61.7,3.69,3.69,0,0,0,1-.17,3.48,3.48,0,0,0,1.07-.54l.25,3.56a3.68,3.68,0,0,1-1,.4,10.76,10.76,0,0,1-1.28.25A10.44,10.44,0,0,1,124.84,33.88Z" fill="#231f20"/>
      <path d="M137.9,33.88a8.78,8.78,0,0,1-3.47-.63A6.61,6.61,0,0,1,132,31.53,6.89,6.89,0,0,1,130.55,29a9,9,0,0,1-.48-2.93,8.49,8.49,0,0,1,.89-3.94,6.56,6.56,0,0,1,2.61-2.74,8.25,8.25,0,0,1,4.25-1,9.14,9.14,0,0,1,3.4.58,6.67,6.67,0,0,1,2.44,1.63,6.79,6.79,0,0,1,1.46,2.46,9,9,0,0,1,.49,3,8.56,8.56,0,0,1-.9,4,6.68,6.68,0,0,1-2.62,2.78A8.05,8.05,0,0,1,137.9,33.88Zm0-3.58a2.73,2.73,0,0,0,1.82-.6,3.69,3.69,0,0,0,1.07-1.55,5.76,5.76,0,0,0,.36-2,5.5,5.5,0,0,0-.41-2.22,3.22,3.22,0,0,0-1.15-1.4,3.33,3.33,0,0,0-3.54.06A3.31,3.31,0,0,0,134.93,24a5.8,5.8,0,0,0,0,4.13A3.68,3.68,0,0,0,136,29.7,2.85,2.85,0,0,0,137.89,30.3Z" fill="#231f20"/>
      <path d="M148.43,33.49V18.82l3.69-.23.19,2.56h.37a6.89,6.89,0,0,1,1.21-1.34,5.83,5.83,0,0,1,1.62-1,5.48,5.48,0,0,1,2.09-.38,4.18,4.18,0,0,1,3.34,1.3,5.75,5.75,0,0,1,1.13,3.89v9.88h-4.38V25a3.67,3.67,0,0,0-.42-1.95,1.71,1.71,0,0,0-1.53-.65,2.63,2.63,0,0,0-1.16.25,3.69,3.69,0,0,0-1,.7,4.82,4.82,0,0,0-.78,1v9.16Z" fill="#231f20"/>
      <path d="M172.79,33.87a9.43,9.43,0,0,1-4.63-1,6.22,6.22,0,0,1-2.65-2.75,9.16,9.16,0,0,1-.85-4,9.51,9.51,0,0,1,.8-4,6.13,6.13,0,0,1,2.38-2.72,7.44,7.44,0,0,1,3.92-1,7.69,7.69,0,0,1,3.43.71,4.87,4.87,0,0,1,2.19,2.14,7.76,7.76,0,0,1,.76,3.64q0,.58,0,1a8.54,8.54,0,0,1-.1.9l-3.76-1.42c0-.14,0-.28,0-.41s0-.26,0-.39a3.54,3.54,0,0,0-.7-2.31,2.24,2.24,0,0,0-1.82-.85,2.35,2.35,0,0,0-1.47.49,3.23,3.23,0,0,0-1,1.38,5.36,5.36,0,0,0-.37,2.1v.72a4.83,4.83,0,0,0,.46,2.2,3.1,3.1,0,0,0,1.44,1.4,5.42,5.42,0,0,0,2.48.49,9,9,0,0,0,1.36-.12,11.71,11.71,0,0,0,1.57-.35,7.91,7.91,0,0,0,1.5-.58l.14,3.71a9.19,9.19,0,0,1-1.33.48,11.81,11.81,0,0,1-1.71.33A14.78,14.78,0,0,1,172.79,33.87Zm-6.44-7V24.53l9.1-.19,2.56.71v1.82Z" fill="#231f20"/>
      <path d="M182.58,33.81a2,2,0,0,1-1-.25,1.69,1.69,0,0,1-.67-.68,2,2,0,0,1-.24-1,1.87,1.87,0,0,1,.53-1.38,1.94,1.94,0,0,1,1.41-.51,2.26,2.26,0,0,1,1,.23,1.8,1.8,0,0,1,.67.67,2,2,0,0,1,.24,1,1.82,1.82,0,0,1-2,1.93Z" fill="#231f20"/>
      <path d="M194.21,33.78a7.59,7.59,0,0,1-4-1,6.55,6.55,0,0,1-2.52-2.72,8.46,8.46,0,0,1-.87-3.88,8.92,8.92,0,0,1,.83-3.89,6.41,6.41,0,0,1,2.43-2.72,7.14,7.14,0,0,1,3.89-1,9.45,9.45,0,0,1,1.68.14,12,12,0,0,1,1.57.39,6.78,6.78,0,0,1,1.3.57l-.22,2.23a10.62,10.62,0,0,0-1.55-.73,7.93,7.93,0,0,0-1.35-.35,8.15,8.15,0,0,0-1.15-.09,4.64,4.64,0,0,0-3.59,1.46,5.58,5.58,0,0,0-1.35,3.95,6.43,6.43,0,0,0,.59,2.81,4.62,4.62,0,0,0,1.8,2,5.66,5.66,0,0,0,3,.72,6.71,6.71,0,0,0,1.26-.11,7.91,7.91,0,0,0,1.24-.35,6.28,6.28,0,0,0,1.19-.59l.21,2.22a7.55,7.55,0,0,1-1.13.47,9.34,9.34,0,0,1-1.45.35A10.69,10.69,0,0,1,194.21,33.78Z" fill="#231f20"/>
      <path d="M209,33.81a8.33,8.33,0,0,1-4.31-1,6.18,6.18,0,0,1-2.51-2.73,9.15,9.15,0,0,1-.83-4,9,9,0,0,1,.81-3.91,6.24,6.24,0,0,1,2.32-2.67,7.34,7.34,0,0,1,6.8-.24,4.86,4.86,0,0,1,2,2.11,7.38,7.38,0,0,1,.72,3.43c0,.36,0,.69,0,1s-.05.58-.09.87l-2.14-1.07a3.75,3.75,0,0,0,0-.45c0-.14,0-.28,0-.42a4.38,4.38,0,0,0-1-3.15,3.55,3.55,0,0,0-2.69-1.08,3.84,3.84,0,0,0-2.3.68,4.42,4.42,0,0,0-1.49,1.89,6.65,6.65,0,0,0-.53,2.75v.34a6.71,6.71,0,0,0,.59,2.94,4.2,4.2,0,0,0,1.78,1.9,6.18,6.18,0,0,0,3.05.67,10.82,10.82,0,0,0,1.46-.11,8.92,8.92,0,0,0,1.53-.35,7.41,7.41,0,0,0,1.45-.61l.1,2.19a7.06,7.06,0,0,1-1.29.53,11.44,11.44,0,0,1-1.62.36A13.74,13.74,0,0,1,209,33.81Zm-6.63-7.13V25l10.08-.09,1.49.56v1.26Z" fill="#231f20"/>
      <path d="M217.91,33.49V18.9l2.12-.14.07,2.7h.26a9.09,9.09,0,0,1,1.21-1.34A6.52,6.52,0,0,1,223.3,19a5.59,5.59,0,0,1,2.3-.45,4.11,4.11,0,0,1,3.4,1.34,6.1,6.1,0,0,1,1.07,3.88v9.72h-2.43v-9.1a4.69,4.69,0,0,0-.62-2.65,2.57,2.57,0,0,0-2.26-.9,4.06,4.06,0,0,0-1.79.4,5.43,5.43,0,0,0-1.47,1.07,9.27,9.27,0,0,0-1.16,1.47v9.71Z" fill="#231f20"/>
      <path d="M233,20.83V18.9h10.32v1.93Zm7.34,13a5.41,5.41,0,0,1-2.47-.51,3.33,3.33,0,0,1-1.54-1.54,5.87,5.87,0,0,1-.52-2.65V14.17l2.39-.53V28.53a3.64,3.64,0,0,0,.67,2.37,2.53,2.53,0,0,0,2.05.79,4.41,4.41,0,0,0,1.19-.18,3.2,3.2,0,0,0,1.15-.58l.21,2.13a2.71,2.71,0,0,1-.8.39,7.7,7.7,0,0,1-1.1.27A8.28,8.28,0,0,1,240.29,33.81Z" fill="#231f20"/>
      <path d="M253.18,33.81a8.33,8.33,0,0,1-4.31-1,6.24,6.24,0,0,1-2.51-2.73,9.15,9.15,0,0,1-.83-4,9,9,0,0,1,.81-3.91,6.26,6.26,0,0,1,2.33-2.67,7.34,7.34,0,0,1,6.8-.24,4.92,4.92,0,0,1,2,2.11,7.38,7.38,0,0,1,.72,3.43c0,.36,0,.69,0,1a6.59,6.59,0,0,1-.09.87L256,25.61a3.64,3.64,0,0,0,0-.45c0-.14,0-.28,0-.42a4.38,4.38,0,0,0-1-3.15,3.53,3.53,0,0,0-2.69-1.08,3.84,3.84,0,0,0-2.3.68,4.42,4.42,0,0,0-1.49,1.89,6.81,6.81,0,0,0-.53,2.75v.34a6.71,6.71,0,0,0,.59,2.94,4.2,4.2,0,0,0,1.78,1.9,6.18,6.18,0,0,0,3,.67,11.09,11.09,0,0,0,1.47-.11,9.37,9.37,0,0,0,1.53-.35,7.59,7.59,0,0,0,1.44-.61L258,32.8a7.48,7.48,0,0,1-1.3.53,11.6,11.6,0,0,1-1.61.36A13.89,13.89,0,0,1,253.18,33.81Zm-6.63-7.13V25l10.08-.09,1.49.56v1.26Z" fill="#231f20"/>
      <path d="M262.1,33.49V18.9l2.12-.14.07,3h.25a6,6,0,0,1,1.39-2,4.29,4.29,0,0,1,1.6-.91,5.23,5.23,0,0,1,1.48-.24,5.79,5.79,0,0,1,.83.06,4,4,0,0,1,.78.19l-.23,2.44-.87-.15a6.09,6.09,0,0,0-.9-.05,4.49,4.49,0,0,0-1,.12,3.47,3.47,0,0,0-1.1.51,4.29,4.29,0,0,0-1.09,1.17,7.15,7.15,0,0,0-.93,2.05v8.6Z" fill="#231f20"/>
    </g>
    <g>
      <path d="M266.88,45.83c-3.91,0-5-5.12-2.08-6.85a3.74,3.74,0,1,1,2.08,6.85Z" fill="#ed145b"/>
      <path d="M262.08,45.8a3.74,3.74,0,0,1-3.46-5.17A3.78,3.78,0,0,1,265.2,40,3.74,3.74,0,0,1,262.08,45.8Z" fill="#ec008c"/>
      <path d="M256.4,45.83a3.75,3.75,0,1,1,2.64-6.4A3.74,3.74,0,0,1,256.4,45.83Z" fill="#92278f"/>
      <path d="M250,45.83a3.74,3.74,0,1,1,3.75-3.74A3.75,3.75,0,0,1,250,45.83Z" fill="#2e3192"/>
      <path d="M243.86,45.83a3.74,3.74,0,1,1,3.68-4.48A3.74,3.74,0,0,1,243.86,45.83Z" fill="#0072bc"/>
      <path d="M237.05,45.83a3.75,3.75,0,1,1,2.64-6.4A3.74,3.74,0,0,1,237.05,45.83Z" fill="#00aeef"/>
      <path d="M226.06,42.09c0-4.61,6.79-5,7.42-.72C234.65,46.58,226.06,47.63,226.06,42.09Z" fill="#00a99d"/>
      <path d="M219,40c2.44-3.66,8.3-.66,6.58,3.49C223.73,48.4,216,44.77,219,40Z" fill="#00a651"/>
      <path d="M214,45.83c-6,0-4-9.45,1.44-7.2C219.18,40.06,218.14,45.83,214,45.83Z" fill="#8dc63f"/>
      <path d="M205.42,45.83a3.75,3.75,0,0,1-1.42-7.2C209.57,36.32,211.42,45.83,205.42,45.83Z" fill="#fff200"/>
      <path d="M196.31,45.83c-4.11,0-5.15-5.77-1.42-7.2C200.31,36.38,202.39,45.83,196.31,45.83Z" fill="#f7941d"/>
      <path d="M182.9,42.09c0-5.52,8.62-4.38,7.43.73A3.75,3.75,0,0,1,182.9,42.09Z" fill="#ed1c24"/>
      <path d="M176.43,45.83A3.74,3.74,0,1,1,179.54,40,3.74,3.74,0,0,1,176.43,45.83Z" fill="#ed145b"/>
      <path d="M165.59,45.83c-5.93,0-4.25-9.38,1.44-7.2A3.75,3.75,0,0,1,165.59,45.83Z" fill="#ec008c"/>
      <path d="M154.11,45.83c-3.91,0-5-5.12-2.08-6.85a3.74,3.74,0,1,1,2.08,6.85Z" fill="#92278f"/>
      <path d="M129.06,45.83A3.74,3.74,0,0,1,125.94,40c1.61-2.78,6.29-1.88,6.78,1.33A3.75,3.75,0,0,1,129.06,45.83Z" fill="#0072bc"/>
      <path d="M141.94,45.83a3.74,3.74,0,1,1,3.75-3.74A3.75,3.75,0,0,1,141.94,45.83Z" fill="#2e3192"/>
      <path d="M115.39,45.83a3.71,3.71,0,0,1-3.73-3.74,3.75,3.75,0,1,1,3.73,3.74Z" fill="#00aeef"/>
      <path d="M100.93,45.83c-6,0-4-9.45,1.44-7.2A3.74,3.74,0,0,1,100.93,45.83Z" fill="#00a99d"/>
      <path d="M85.6,45.83c-5.94,0-4.14-9.34,1.44-7.2A3.74,3.74,0,0,1,85.6,45.83Z" fill="#00a651"/>
      <path d="M69.37,45.83A3.74,3.74,0,0,1,66.25,40c1.63-2.81,6.29-1.86,6.78,1.33A3.75,3.75,0,0,1,69.37,45.83Z" fill="#8dc63f"/>
      <path d="M52.15,45.83a3.75,3.75,0,1,1,2.66-6.4A3.73,3.73,0,0,1,52.15,45.83Z" fill="#fff200"/>
      <path d="M33.93,45.83a3.75,3.75,0,0,1-1.44-7.2C38.09,36.49,40,45.83,33.93,45.83Z" fill="#f7941d"/>
      <path d="M11.5,40a3.75,3.75,0,0,1,6.8,1.33C19.34,48.59,7.7,46,11.5,40Z" fill="#ed1c24"/>
      <path d="M183.39,40a3.74,3.74,0,0,1,6.79,1.33C191.22,48.59,179.58,46,183.39,40Z" fill="#ed1c24"/>
    </g>
  </g>
</svg>
