<svg id="Layer_2" data-name="Layer 2" xmlns="http://www.w3.org/2000/svg" viewBox="0 0 303.28 82.1">
  <g>
    <g>
      <path d="M275.57,64.19c-3.84,0-4.93-5-2-6.72a3.67,3.67,0,1,1,2,6.72Z" fill="#ed145b"/>
      <path d="M270.86,64.17a3.68,3.68,0,1,1,3.06-5.71A3.68,3.68,0,0,1,270.86,64.17Z" fill="#ec008c"/>
      <path d="M265.28,64.19a3.68,3.68,0,1,1,2.59-6.28A3.67,3.67,0,0,1,265.28,64.19Z" fill="#92278f"/>
      <path d="M259,64.19a3.67,3.67,0,1,1,3.68-3.67A3.67,3.67,0,0,1,259,64.19Z" fill="#2e3192"/>
      <path d="M253,64.19a3.68,3.68,0,1,1,3.62-4.4A3.67,3.67,0,0,1,253,64.19Z" fill="#0072bc"/>
      <path d="M246.28,64.19a3.67,3.67,0,0,1-3.68-3.67,3.68,3.68,0,1,1,3.68,3.67Z" fill="#00aeef"/>
      <path d="M235.5,60.52c0-4.52,6.66-5,7.28-.71C243.93,64.93,235.5,66,235.5,60.52Z" fill="#00a99d"/>
      <path d="M228.59,58.49c2.4-3.6,8.15-.65,6.46,3.43C233.21,66.72,225.66,63.15,228.59,58.49Z" fill="#00a651"/>
      <path d="M223.67,64.19c-5.9,0-3.92-9.28,1.42-7.06C228.74,58.53,227.72,64.19,223.67,64.19Z" fill="#8dc63f"/>
      <path d="M215.23,64.19a3.68,3.68,0,0,1-1.4-7.06C219.31,54.86,221.12,64.19,215.23,64.19Z" fill="#fff200"/>
      <path d="M206.29,64.19c-4,0-5.06-5.66-1.4-7.06C210.21,54.92,212.26,64.19,206.29,64.19Z" fill="#f7941d"/>
      <path d="M193.12,60.52c0-5.42,8.47-4.3,7.3.72A3.69,3.69,0,0,1,193.12,60.52Z" fill="#ed1c24"/>
      <path d="M186.77,64.19a3.67,3.67,0,0,1-3.4-5.08,3.71,3.71,0,0,1,6.46-.62A3.67,3.67,0,0,1,186.77,64.19Z" fill="#ed145b"/>
      <path d="M176.13,64.19c-5.83,0-4.17-9.2,1.41-7.06A3.67,3.67,0,0,1,176.13,64.19Z" fill="#ec008c"/>
      <path d="M164.86,64.19c-3.84,0-4.94-5-2-6.72a3.67,3.67,0,1,1,2,6.72Z" fill="#92278f"/>
      <path d="M140.26,64.19a3.66,3.66,0,0,1-3.06-5.7c1.59-2.73,6.18-1.84,6.66,1.3A3.68,3.68,0,0,1,140.26,64.19Z" fill="#0072bc"/>
      <path d="M152.91,64.19a3.67,3.67,0,1,1,3.68-3.67A3.67,3.67,0,0,1,152.91,64.19Z" fill="#2e3192"/>
      <path d="M126.85,64.19a3.63,3.63,0,0,1-3.67-3.67,3.68,3.68,0,1,1,3.67,3.67Z" fill="#00aeef"/>
      <path d="M112.64,64.19c-5.9,0-3.92-9.28,1.42-7.06A3.67,3.67,0,0,1,112.64,64.19Z" fill="#00a99d"/>
      <path d="M97.6,64.19c-5.83,0-4.07-9.16,1.41-7.06A3.67,3.67,0,0,1,97.6,64.19Z" fill="#00a651"/>
      <path d="M81.66,64.19a3.67,3.67,0,0,1-3.06-5.7c1.6-2.76,6.18-1.83,6.66,1.3A3.68,3.68,0,0,1,81.66,64.19Z" fill="#8dc63f"/>
      <path d="M64.76,64.19a3.68,3.68,0,1,1,2.61-6.28A3.66,3.66,0,0,1,64.76,64.19Z" fill="#fff200"/>
      <path d="M46.87,64.19a3.67,3.67,0,0,1-1.41-7.06C51,55,52.78,64.19,46.87,64.19Z" fill="#f7941d"/>
      <path d="M24.85,58.49a3.68,3.68,0,0,1,6.67,1.3C32.54,66.91,21.11,64.39,24.85,58.49Z" fill="#ed1c24"/>
      <path d="M193.6,58.49a3.68,3.68,0,0,1,6.67,1.3C201.29,66.91,189.87,64.39,193.6,58.49Z" fill="#ed1c24"/>
    </g>
    <g>
      <path d="M41.06,53.17a19.48,19.48,0,0,1-7-1.18,14.63,14.63,0,0,1-8.67-8.61,18.71,18.71,0,0,1-1.16-6.71,18.44,18.44,0,0,1,1.94-8.55,14.41,14.41,0,0,1,5.59-5.91,16.86,16.86,0,0,1,8.71-2.14,23.79,23.79,0,0,1,3.05.2,25.51,25.51,0,0,1,2.89.54,22.56,22.56,0,0,1,2.58.77,19.07,19.07,0,0,1,2.14.92l-.56,6.84a21.24,21.24,0,0,0-3.35-1.75,18.27,18.27,0,0,0-3.1-1,14.26,14.26,0,0,0-2.82-.3,9.66,9.66,0,0,0-4.85,1.2A8.28,8.28,0,0,0,33.12,31a12,12,0,0,0-1.22,5.64,12.51,12.51,0,0,0,.63,4A9.35,9.35,0,0,0,34.42,44a8.65,8.65,0,0,0,3.16,2.28,11,11,0,0,0,4.44.83A15,15,0,0,0,44.13,47a14.7,14.7,0,0,0,2.13-.45,12.86,12.86,0,0,0,2.15-.86,16.63,16.63,0,0,0,2.14-1.33L51,51.07a13,13,0,0,1-2.13.94,18.16,18.16,0,0,1-2.44.66,25,25,0,0,1-2.64.38C42.85,53.13,42,53.17,41.06,53.17Z" fill="#231f20"/>
      <path d="M55.85,52.57V19.82l6.68-.58V33.38h.55a10.22,10.22,0,0,1,1.64-1.81,8,8,0,0,1,2.22-1.37,7.35,7.35,0,0,1,2.85-.53,6.36,6.36,0,0,1,5.07,2C76,33,76.58,34.94,76.58,37.56v15H69.92V39.7a5.51,5.51,0,0,0-.65-3,2.55,2.55,0,0,0-2.32-1,4,4,0,0,0-1.77.39,5.67,5.67,0,0,0-1.47,1,8.29,8.29,0,0,0-1.18,1.46V52.57Z" fill="#231f20"/>
      <path d="M81.69,52.57V30.28l5.61-.34.29,4.11h.56a9,9,0,0,1,1.92-2.76A5.7,5.7,0,0,1,92.21,30a7.3,7.3,0,0,1,2.1-.34,8.26,8.26,0,0,1,1.15.09,5.17,5.17,0,0,1,1.2.32l-.58,6.47-1.57-.11c-.46,0-1,0-1.47,0a6.42,6.42,0,0,0-1.29.13,3.74,3.74,0,0,0-1.28.54,4.65,4.65,0,0,0-1.16,1.11A7,7,0,0,0,88.37,40V52.57Z" fill="#231f20"/>
      <path d="M110.19,53.17a13.38,13.38,0,0,1-5.28-1,10.27,10.27,0,0,1-3.71-2.61A11.2,11.2,0,0,1,99,45.81a13.79,13.79,0,0,1-.72-4.45,13,13,0,0,1,1.35-6,10.07,10.07,0,0,1,4-4.18,12.56,12.56,0,0,1,6.44-1.53,13.92,13.92,0,0,1,5.17.89A9.89,9.89,0,0,1,118.94,33a10.26,10.26,0,0,1,2.22,3.73,14,14,0,0,1,.74,4.59,13.22,13.22,0,0,1-1.36,6,10.3,10.3,0,0,1-4,4.22A12.32,12.32,0,0,1,110.19,53.17Zm0-5.45a4.17,4.17,0,0,0,2.76-.9,5.57,5.57,0,0,0,1.63-2.36,8.61,8.61,0,0,0,.55-3.1,8.21,8.21,0,0,0-.63-3.37,4.88,4.88,0,0,0-1.74-2.13,5,5,0,0,0-5.37.09,5.09,5.09,0,0,0-1.7,2.23,8.93,8.93,0,0,0,0,6.28,5.62,5.62,0,0,0,1.7,2.36A4.33,4.33,0,0,0,110.17,47.72Z" fill="#231f20"/>
      <path d="M126.19,52.57V30.28l5.6-.34.29,3.87h.56a13,13,0,0,1,1.79-2,8.38,8.38,0,0,1,2.38-1.53,7.82,7.82,0,0,1,3.07-.58,5.73,5.73,0,0,1,4,1.29,6.63,6.63,0,0,1,1.91,3.69l.44.07a13.63,13.63,0,0,1,.21,1.35,11.86,11.86,0,0,1,.08,1.49v15h-6.68V39.7a5.74,5.74,0,0,0-.61-3,2.36,2.36,0,0,0-2.18-1,3.46,3.46,0,0,0-1.67.4A5.4,5.4,0,0,0,134,37.21a8.63,8.63,0,0,0-1.11,1.44V52.57Zm27.2,0V39.7a5.85,5.85,0,0,0-.6-3,2.35,2.35,0,0,0-2.19-1,3.57,3.57,0,0,0-1.67.39,5.19,5.19,0,0,0-1.4,1,8.49,8.49,0,0,0-1.13,1.46l-1-4.8H146a13.29,13.29,0,0,1,1.87-2.05,8.82,8.82,0,0,1,2.47-1.55,8.25,8.25,0,0,1,3.14-.58,6.06,6.06,0,0,1,5,2,9.15,9.15,0,0,1,1.64,5.89v15Z" fill="#231f20"/>
      <path d="M170.41,53.11a6.7,6.7,0,0,1-3.35-.81A5.69,5.69,0,0,1,164.83,50a7,7,0,0,1-.8-3.44,6.8,6.8,0,0,1,.67-3.2,6,6,0,0,1,1.73-2.09,7.84,7.84,0,0,1,2.32-1.23,16.91,16.91,0,0,1,2.47-.63l6.21-1a3,3,0,0,0-.47-2,2.82,2.82,0,0,0-1.57-1,8.7,8.7,0,0,0-2.43-.29,12.18,12.18,0,0,0-1.64.12,16.36,16.36,0,0,0-1.88.37c-.66.16-1.33.37-2,.61s-1.38.53-2.08.86L165,31.44c.55-.21,1.18-.42,1.9-.63s1.49-.4,2.33-.58a23.73,23.73,0,0,1,2.65-.4c.92-.09,1.88-.13,2.86-.13a12.69,12.69,0,0,1,4.78.8,6.13,6.13,0,0,1,3,2.55,8.73,8.73,0,0,1,1,4.55v15H177.9l-.43-3H177a9.1,9.1,0,0,1-1.53,1.68,7.46,7.46,0,0,1-5,1.85ZM173.07,48a3.51,3.51,0,0,0,1.55-.38,5.77,5.77,0,0,0,1.46-1.06,7,7,0,0,0,1.17-1.62V41.49a3.2,3.2,0,0,1-.67.37,9,9,0,0,1-1.21.36l-2.23.48a3.72,3.72,0,0,0-1.38.53,2.69,2.69,0,0,0-1.21,2.37,2.08,2.08,0,0,0,.77,1.82A2.91,2.91,0,0,0,173.07,48Z" fill="#231f20"/>
      <path d="M186.79,35.3v-5h16.84v5Zm11.46,17.87a10.76,10.76,0,0,1-4.24-.75,5.41,5.41,0,0,1-2.68-2.4,8.84,8.84,0,0,1-.92-4.35V23L197,21.86V43.57a5.34,5.34,0,0,0,.75,3.09,2.78,2.78,0,0,0,2.45,1.06,5.48,5.48,0,0,0,1.56-.25,5.81,5.81,0,0,0,1.63-.82l.38,5.41a6.4,6.4,0,0,1-1.47.6,15,15,0,0,1-2,.38A16.21,16.21,0,0,1,198.25,53.17Z" fill="#231f20"/>
      <path d="M218.1,53.17a13.38,13.38,0,0,1-5.28-1,10.27,10.27,0,0,1-3.71-2.61,11.2,11.2,0,0,1-2.19-3.79,13.79,13.79,0,0,1-.72-4.45,13,13,0,0,1,1.35-6,10,10,0,0,1,4-4.18A12.62,12.62,0,0,1,218,29.67a13.92,13.92,0,0,1,5.17.89A9.89,9.89,0,0,1,226.85,33a10.26,10.26,0,0,1,2.22,3.73,14,14,0,0,1,.74,4.59,13.1,13.1,0,0,1-1.37,6,10.21,10.21,0,0,1-4,4.22A12.32,12.32,0,0,1,218.1,53.17Zm0-5.45a4.17,4.17,0,0,0,2.76-.9,5.66,5.66,0,0,0,1.63-2.36,8.83,8.83,0,0,0,.55-3.1,8.21,8.21,0,0,0-.63-3.37,4.88,4.88,0,0,0-1.74-2.13,5,5,0,0,0-5.37.09,5,5,0,0,0-1.7,2.23,8.93,8.93,0,0,0,0,6.28,5.53,5.53,0,0,0,1.7,2.36A4.33,4.33,0,0,0,218.08,47.72Z" fill="#231f20"/>
      <path d="M234.1,52.57V30.28l5.6-.34.29,3.89h.56a12.07,12.07,0,0,1,1.83-2,9,9,0,0,1,2.47-1.53,8.35,8.35,0,0,1,3.18-.58,6.33,6.33,0,0,1,5.07,2q1.72,2,1.72,5.91v15h-6.65V39.7a5.51,5.51,0,0,0-.65-3,2.57,2.57,0,0,0-2.32-1,4,4,0,0,0-1.77.39,5.51,5.51,0,0,0-1.47,1,8.83,8.83,0,0,0-1.19,1.46V52.57Z" fill="#231f20"/>
      <path d="M271.11,53.15a14.4,14.4,0,0,1-7-1.52,9.37,9.37,0,0,1-4-4.18,13.77,13.77,0,0,1-1.29-6.09A14.43,14.43,0,0,1,260,35.29a9.25,9.25,0,0,1,3.62-4.12,11.22,11.22,0,0,1,6-1.47,11.59,11.59,0,0,1,5.21,1.07A7.44,7.44,0,0,1,278.08,34a11.76,11.76,0,0,1,1.16,5.52c0,.59,0,1.12-.05,1.59s-.08.93-.15,1.38l-5.72-2.17c0-.21.05-.41.07-.61s0-.4,0-.6a5.33,5.33,0,0,0-1.06-3.51,3.41,3.41,0,0,0-2.76-1.29,3.6,3.6,0,0,0-2.24.75,5.08,5.08,0,0,0-1.54,2.09,8.32,8.32,0,0,0-.55,3.19v1.1a7.35,7.35,0,0,0,.7,3.34,4.69,4.69,0,0,0,2.18,2.13,8.43,8.43,0,0,0,3.77.74A13.8,13.8,0,0,0,274,47.5a19.81,19.81,0,0,0,2.39-.53,12.58,12.58,0,0,0,2.27-.88l.22,5.63a14.19,14.19,0,0,1-2,.73,20.14,20.14,0,0,1-2.61.51A23.45,23.45,0,0,1,271.11,53.15Zm-9.79-10.63V39l13.83-.29L279,39.75v2.77Z" fill="#231f20"/>
    </g>
  </g>
</svg>
