<svg id="Layer_2" data-name="Layer 2" xmlns="http://www.w3.org/2000/svg" viewBox="0 0 303.28 82.1">
  <g>
    <g>
      <path d="M41.06,51.47a19.48,19.48,0,0,1-7-1.18,14.63,14.63,0,0,1-8.67-8.61A18.73,18.73,0,0,1,24.24,35a18.42,18.42,0,0,1,1.94-8.54,14.41,14.41,0,0,1,5.59-5.91,16.86,16.86,0,0,1,8.71-2.14,22.11,22.11,0,0,1,3.05.2,25.1,25.1,0,0,1,2.89.54,22.56,22.56,0,0,1,2.58.77,19.07,19.07,0,0,1,2.14.92l-.56,6.84a22.22,22.22,0,0,0-3.35-1.76,18.19,18.19,0,0,0-3.1-1,14.26,14.26,0,0,0-2.82-.3,9.69,9.69,0,0,0-4.85,1.2,8.37,8.37,0,0,0-3.34,3.5A12,12,0,0,0,31.9,35a12.52,12.52,0,0,0,.63,4,9.66,9.66,0,0,0,1.89,3.34,8.65,8.65,0,0,0,3.16,2.28,11,11,0,0,0,4.44.83,15.8,15.8,0,0,0,4.25-.6A12,12,0,0,0,48.41,44a15.58,15.58,0,0,0,2.15-1.32l.4,6.74a13.3,13.3,0,0,1-2.12.94,18.3,18.3,0,0,1-2.45.66,25,25,0,0,1-2.64.38C42.85,51.43,42,51.47,41.06,51.47Z" fill="#231f20"/>
      <path d="M55.85,50.87V18.12l6.68-.58V31.68h.56a10.15,10.15,0,0,1,1.63-1.81,8,8,0,0,1,2.22-1.37A7.35,7.35,0,0,1,69.79,28a6.36,6.36,0,0,1,5.07,2c1.14,1.32,1.72,3.29,1.72,5.91v15H69.92V38a5.51,5.51,0,0,0-.65-3,2.55,2.55,0,0,0-2.32-1,4,4,0,0,0-1.77.39,5.67,5.67,0,0,0-1.47,1.05A8.29,8.29,0,0,0,62.53,37V50.87Z" fill="#231f20"/>
      <path d="M81.69,50.87V28.58l5.61-.34.29,4.11h.56a8.9,8.9,0,0,1,1.92-2.76,5.7,5.7,0,0,1,2.14-1.28,7,7,0,0,1,2.1-.34,8.26,8.26,0,0,1,1.15.09,5.55,5.55,0,0,1,1.2.31l-.58,6.48-1.57-.11c-.46,0-1,0-1.47,0a6.25,6.25,0,0,0-1.28.13,3.78,3.78,0,0,0-1.29.54,4.47,4.47,0,0,0-1.16,1.11,7,7,0,0,0-.94,1.86V50.87Z" fill="#231f20"/>
      <path d="M110.19,51.47a13.38,13.38,0,0,1-5.28-1,10.36,10.36,0,0,1-3.71-2.61A11.2,11.2,0,0,1,99,44.11a13.83,13.83,0,0,1-.72-4.45,13,13,0,0,1,1.35-6,10.07,10.07,0,0,1,4-4.18A12.58,12.58,0,0,1,110.06,28a13.89,13.89,0,0,1,5.17.89,10,10,0,0,1,3.71,2.47,10.43,10.43,0,0,1,2.22,3.73,14.08,14.08,0,0,1,.74,4.6,13.22,13.22,0,0,1-1.36,6,10.3,10.3,0,0,1-4,4.22A12.29,12.29,0,0,1,110.19,51.47Zm0-5.45a4.17,4.17,0,0,0,2.76-.9,5.57,5.57,0,0,0,1.63-2.36,8.61,8.61,0,0,0,.55-3.1,8.14,8.14,0,0,0-.63-3.37,4.75,4.75,0,0,0-1.74-2.13,5,5,0,0,0-5.37.09,5.09,5.09,0,0,0-1.7,2.23,8.93,8.93,0,0,0,0,6.28,5.62,5.62,0,0,0,1.7,2.36A4.35,4.35,0,0,0,110.17,46Z" fill="#231f20"/>
      <path d="M126.19,50.87V28.58l5.6-.34.29,3.87h.56a13,13,0,0,1,1.79-2,8.38,8.38,0,0,1,2.38-1.53,7.82,7.82,0,0,1,3.07-.58,5.73,5.73,0,0,1,4,1.29A6.63,6.63,0,0,1,145.78,33l.44.07c.09.43.16.88.22,1.35a14.19,14.19,0,0,1,.07,1.49v15h-6.67V38a5.73,5.73,0,0,0-.62-3,2.35,2.35,0,0,0-2.18-1,3.46,3.46,0,0,0-1.67.4A5.4,5.4,0,0,0,134,35.51,9.2,9.2,0,0,0,132.87,37V50.87Zm27.2,0V38a5.85,5.85,0,0,0-.6-3,2.35,2.35,0,0,0-2.19-1,3.57,3.57,0,0,0-1.67.39,5.19,5.19,0,0,0-1.4,1.05A9,9,0,0,0,146.4,37l-1-4.8H146a13.83,13.83,0,0,1,1.87-2.06,8.8,8.8,0,0,1,2.47-1.54,8.25,8.25,0,0,1,3.14-.58,6.06,6.06,0,0,1,5,2c1.1,1.33,1.64,3.3,1.64,5.89v15Z" fill="#231f20"/>
      <path d="M170.42,51.4a6.71,6.71,0,0,1-3.36-.8,5.76,5.76,0,0,1-2.23-2.28,7,7,0,0,1-.8-3.44,6.8,6.8,0,0,1,.67-3.2,5.94,5.94,0,0,1,1.73-2.09,8,8,0,0,1,2.32-1.23,17.24,17.24,0,0,1,2.47-.63l6.21-1a3,3,0,0,0-.47-2,2.83,2.83,0,0,0-1.56-1,8.82,8.82,0,0,0-2.44-.29,12.3,12.3,0,0,0-1.64.12,16.79,16.79,0,0,0-1.88.37c-.66.16-1.33.37-2,.61s-1.38.53-2.08.86L165,29.74c.55-.21,1.19-.42,1.9-.63s1.49-.4,2.33-.58a24.09,24.09,0,0,1,2.65-.4c.92-.09,1.88-.13,2.86-.13a12.69,12.69,0,0,1,4.78.8,6.08,6.08,0,0,1,3,2.55,8.73,8.73,0,0,1,1,4.55v15H177.9l-.43-3H177a9.1,9.1,0,0,1-1.53,1.68,7.39,7.39,0,0,1-5,1.84Zm2.65-5.13a3.58,3.58,0,0,0,1.56-.38,5.91,5.91,0,0,0,1.45-1.06,7,7,0,0,0,1.17-1.62V39.79a3.2,3.2,0,0,1-.67.37,9,9,0,0,1-1.21.36l-2.23.48a3.67,3.67,0,0,0-1.37.53,2.79,2.79,0,0,0-.9,1,3,3,0,0,0-.32,1.4,2.09,2.09,0,0,0,.77,1.82A3,3,0,0,0,173.07,46.27Z" fill="#231f20"/>
      <path d="M186.79,33.6v-5h16.84v5Zm11.46,17.87a10.76,10.76,0,0,1-4.24-.75,5.5,5.5,0,0,1-2.68-2.4,9,9,0,0,1-.92-4.35V21.34L197,20.16V41.87a5.34,5.34,0,0,0,.75,3.09A2.79,2.79,0,0,0,200.17,46a5.14,5.14,0,0,0,1.56-.26,5.52,5.52,0,0,0,1.63-.81l.38,5.4a6,6,0,0,1-1.47.61,15,15,0,0,1-2,.38A16.21,16.21,0,0,1,198.25,51.47Z" fill="#231f20"/>
      <path d="M218.1,51.47a13.38,13.38,0,0,1-5.28-1,10.27,10.27,0,0,1-3.71-2.61,11.2,11.2,0,0,1-2.19-3.79,13.83,13.83,0,0,1-.72-4.45,13,13,0,0,1,1.35-6,10.07,10.07,0,0,1,4-4.18A12.56,12.56,0,0,1,218,28a13.92,13.92,0,0,1,5.17.89,10,10,0,0,1,3.71,2.47,10.43,10.43,0,0,1,2.22,3.73,14.08,14.08,0,0,1,.74,4.6,13.22,13.22,0,0,1-1.36,6,10.3,10.3,0,0,1-4,4.22A12.32,12.32,0,0,1,218.1,51.47Zm0-5.45a4.17,4.17,0,0,0,2.76-.9,5.57,5.57,0,0,0,1.63-2.36,8.61,8.61,0,0,0,.55-3.1,8.14,8.14,0,0,0-.63-3.37,4.88,4.88,0,0,0-1.74-2.13,5,5,0,0,0-5.37.09,5.09,5.09,0,0,0-1.7,2.23,8.93,8.93,0,0,0,0,6.28,5.62,5.62,0,0,0,1.7,2.36A4.33,4.33,0,0,0,218.08,46Z" fill="#231f20"/>
      <path d="M234.1,50.87V28.58l5.6-.34.29,3.89h.56a12.07,12.07,0,0,1,1.83-2.05,9,9,0,0,1,2.47-1.53A8.35,8.35,0,0,1,248,28a6.37,6.37,0,0,1,5.08,2c1.14,1.32,1.72,3.29,1.72,5.91v15h-6.66V38a5.51,5.51,0,0,0-.65-3,2.57,2.57,0,0,0-2.32-1,4,4,0,0,0-1.77.39A5.67,5.67,0,0,0,242,35.49,8.29,8.29,0,0,0,240.78,37V50.87Z" fill="#231f20"/>
      <path d="M271.11,51.45a14.4,14.4,0,0,1-7-1.52,9.48,9.48,0,0,1-4-4.18,13.77,13.77,0,0,1-1.29-6.09A14.43,14.43,0,0,1,260,33.59a9.31,9.31,0,0,1,3.62-4.12,11.23,11.23,0,0,1,6-1.47,11.54,11.54,0,0,1,5.2,1.07,7.44,7.44,0,0,1,3.33,3.26,11.76,11.76,0,0,1,1.16,5.52c0,.59,0,1.12-.05,1.59s-.08.93-.15,1.38l-5.72-2.17c0-.21.05-.41.07-.61s0-.4,0-.6a5.31,5.31,0,0,0-1.06-3.51,3.41,3.41,0,0,0-2.76-1.29,3.57,3.57,0,0,0-2.23.75,5,5,0,0,0-1.55,2.09,8.32,8.32,0,0,0-.55,3.19v1.1a7.35,7.35,0,0,0,.7,3.34,4.69,4.69,0,0,0,2.18,2.13,8.43,8.43,0,0,0,3.77.74A13.8,13.8,0,0,0,274,45.8a19.81,19.81,0,0,0,2.39-.53,12.3,12.3,0,0,0,2.27-.88l.22,5.63a14.19,14.19,0,0,1-2,.73,20.31,20.31,0,0,1-2.6.51A23.6,23.6,0,0,1,271.11,51.45Zm-9.78-10.63V37.26L275.15,37,279,38.05v2.77Z" fill="#231f20"/>
    </g>
    <g>
      <path d="M274.77,66.23a5.64,5.64,0,1,1,4.69-8.76A5.65,5.65,0,0,1,274.77,66.23Z" fill="#ed145b"/>
      <path d="M258.44,66.23c-8.93,0-6.39-14.13,2.17-10.84C266.35,57.77,264.49,66.23,258.44,66.23Z" fill="#ec008c"/>
      <path d="M241.15,66.23c-5.89,0-7.57-7.72-3.13-10.32a5.63,5.63,0,1,1,3.13,10.32Z" fill="#92278f"/>
      <path d="M203.42,66.23a5.63,5.63,0,0,1-4.69-8.76c2.42-4.17,9.47-2.82,10.2,2A5.65,5.65,0,0,1,203.42,66.23Z" fill="#0072bc"/>
      <path d="M222.82,66.23c-5.75,0-7.59-7.46-3.13-10.32a5.64,5.64,0,1,1,3.13,10.32Z" fill="#2e3192"/>
      <path d="M182.84,66.23a5.59,5.59,0,0,1-5.63-5.63,5.64,5.64,0,1,1,5.63,5.63Z" fill="#00aeef"/>
      <path d="M161.05,66.23c-9.05,0-6-14.24,2.16-10.84A5.64,5.64,0,0,1,161.05,66.23Z" fill="#00a99d"/>
      <path d="M138,66.23c-8.95,0-6.24-14.07,2.17-10.84A5.64,5.64,0,0,1,138,66.23Z" fill="#00a651"/>
      <path d="M113.52,66.23a5.64,5.64,0,0,1-4.7-8.76c2.46-4.22,9.48-2.8,10.21,2A5.64,5.64,0,0,1,113.52,66.23Z" fill="#8dc63f"/>
      <path d="M87.58,66.23a5.64,5.64,0,1,1,4-9.64A5.62,5.62,0,0,1,87.58,66.23Z" fill="#fff200"/>
      <path d="M60.14,66.23c-6,0-7.9-8.47-2.17-10.84C66.4,52.15,69.21,66.23,60.14,66.23Z" fill="#f7941d"/>
      <path d="M31.05,66.23a5.64,5.64,0,1,1,5.54-6.75A5.64,5.64,0,0,1,31.05,66.23Z" fill="#ed1c24"/>
    </g>
  </g>
</svg>
