<svg id="Layer_2" data-name="Layer 2" xmlns="http://www.w3.org/2000/svg" viewBox="0 0 291.57 61.8">
  <g>
    <path d="M35.21,46.32a19.45,19.45,0,0,1-7-1.18,14.84,14.84,0,0,1-5.31-3.39,14.66,14.66,0,0,1-3.36-5.22,18.52,18.52,0,0,1-1.16-6.72,18.3,18.3,0,0,1,1.94-8.54,14.45,14.45,0,0,1,5.58-5.91,16.9,16.9,0,0,1,8.72-2.14,22.21,22.21,0,0,1,3,.2,28.46,28.46,0,0,1,2.89.53,23.81,23.81,0,0,1,2.58.78,17.9,17.9,0,0,1,2.13.92l-.56,6.84a22.22,22.22,0,0,0-3.35-1.76,17,17,0,0,0-3.09-1,14.28,14.28,0,0,0-2.83-.3,9.72,9.72,0,0,0-4.85,1.2,8.35,8.35,0,0,0-3.33,3.5,11.93,11.93,0,0,0-1.22,5.64,12.8,12.8,0,0,0,.62,4,9.75,9.75,0,0,0,1.89,3.34,8.74,8.74,0,0,0,3.16,2.28,11.11,11.11,0,0,0,4.45.83,15.08,15.08,0,0,0,2.11-.15,13.76,13.76,0,0,0,2.13-.46,11,11,0,0,0,2.14-.86,15.58,15.58,0,0,0,2.15-1.32l.4,6.74a13.3,13.3,0,0,1-2.12.94,17.91,17.91,0,0,1-2.45.66,24.48,24.48,0,0,1-2.63.38C37,46.28,36.1,46.32,35.21,46.32Z" fill="#231f20"/>
    <path d="M50,45.72V13l6.68-.58V26.53h.56a10.55,10.55,0,0,1,1.63-1.81,8,8,0,0,1,2.22-1.37,7.35,7.35,0,0,1,2.85-.53,6.35,6.35,0,0,1,5.07,2q1.73,2,1.72,5.91v15H64.07V32.85a5.48,5.48,0,0,0-.65-3,2.57,2.57,0,0,0-2.33-1,4,4,0,0,0-1.76.39,5.35,5.35,0,0,0-1.47,1.05,8.35,8.35,0,0,0-1.19,1.46V45.72Z" fill="#231f20"/>
    <path d="M75.84,45.72V23.43l5.6-.34.29,4.11h.56a8.78,8.78,0,0,1,1.92-2.76,5.73,5.73,0,0,1,2.15-1.28,7,7,0,0,1,2.1-.34,8.38,8.38,0,0,1,1.15.09,5.61,5.61,0,0,1,1.19.31l-.58,6.48-1.56-.11c-.46,0-1,0-1.48,0a6.39,6.39,0,0,0-1.28.13,3.66,3.66,0,0,0-1.28.54,4.5,4.5,0,0,0-1.17,1.11,7,7,0,0,0-.93,1.86V45.72Z" fill="#231f20"/>
    <path d="M104.34,46.32a13.31,13.31,0,0,1-5.28-1,10.19,10.19,0,0,1-3.71-2.61A10.88,10.88,0,0,1,93.16,39a13.85,13.85,0,0,1-.73-4.46,13,13,0,0,1,1.35-6,10.08,10.08,0,0,1,4-4.18,12.61,12.61,0,0,1,6.44-1.53,14.19,14.19,0,0,1,5.18.88,10.09,10.09,0,0,1,3.7,2.48,10.6,10.6,0,0,1,2.23,3.73A14.06,14.06,0,0,1,116,34.5a13.11,13.11,0,0,1-1.36,6,10.27,10.27,0,0,1-4,4.22A12.35,12.35,0,0,1,104.34,46.32Zm0-5.45a4.2,4.2,0,0,0,2.76-.9,5.66,5.66,0,0,0,1.63-2.36,8.84,8.84,0,0,0,.54-3.11,8.3,8.3,0,0,0-.62-3.36A4.88,4.88,0,0,0,106.89,29a4.63,4.63,0,0,0-2.6-.74,4.58,4.58,0,0,0-2.78.83,5,5,0,0,0-1.69,2.23,8.93,8.93,0,0,0,0,6.28A5.6,5.6,0,0,0,101.51,40,4.36,4.36,0,0,0,104.32,40.87Z" fill="#231f20"/>
    <path d="M120.33,45.72V23.43l5.61-.34.29,3.86h.56a13.35,13.35,0,0,1,1.78-2A8.52,8.52,0,0,1,131,23.4a7.85,7.85,0,0,1,3.07-.58,5.7,5.7,0,0,1,4,1.29,6.57,6.57,0,0,1,1.91,3.69l.45.07a13.63,13.63,0,0,1,.21,1.35,14.11,14.11,0,0,1,.08,1.49v15H134V32.85a5.81,5.81,0,0,0-.61-3,2.36,2.36,0,0,0-2.18-1,3.53,3.53,0,0,0-1.68.4,5.36,5.36,0,0,0-1.38,1.06A9.25,9.25,0,0,0,127,31.8V45.72Zm27.21,0V32.85a5.71,5.71,0,0,0-.61-3,2.34,2.34,0,0,0-2.18-1,3.64,3.64,0,0,0-1.68.39,5.15,5.15,0,0,0-1.39,1.05,8,8,0,0,0-1.13,1.46l-1-4.8h.58A13.42,13.42,0,0,1,142,24.94a8.66,8.66,0,0,1,2.47-1.54,8.21,8.21,0,0,1,3.14-.58,6.08,6.08,0,0,1,5,2,9.13,9.13,0,0,1,1.64,5.89v15Z" fill="#231f20"/>
    <path d="M164.56,46.25a6.67,6.67,0,0,1-3.35-.8A5.78,5.78,0,0,1,159,43.17a7.13,7.13,0,0,1-.8-3.44,6.8,6.8,0,0,1,.67-3.2,6,6,0,0,1,1.73-2.09,7.89,7.89,0,0,1,2.33-1.23,17.12,17.12,0,0,1,2.46-.63l6.21-1a3,3,0,0,0-.47-2,2.76,2.76,0,0,0-1.56-1,8.75,8.75,0,0,0-2.43-.29,12.33,12.33,0,0,0-1.65.12,16.64,16.64,0,0,0-1.87.37,18.48,18.48,0,0,0-2,.61c-.69.25-1.38.53-2.08.86l-.31-5.67q.82-.32,1.89-.63c.72-.21,1.5-.4,2.34-.58a23.38,23.38,0,0,1,2.65-.4c.92-.09,1.87-.14,2.86-.14a12.68,12.68,0,0,1,4.78.81,6,6,0,0,1,3,2.55,8.73,8.73,0,0,1,1.05,4.55v15H172l-.42-3h-.49a9.55,9.55,0,0,1-1.53,1.69,7.81,7.81,0,0,1-2.18,1.33A7.56,7.56,0,0,1,164.56,46.25Zm2.66-5.13a3.51,3.51,0,0,0,1.55-.38,5.73,5.73,0,0,0,1.45-1.06,6.46,6.46,0,0,0,1.17-1.62V34.64a3,3,0,0,1-.67.37,7.71,7.71,0,0,1-1.2.35c-.54.13-1.28.29-2.24.48a3.93,3.93,0,0,0-1.37.54,2.67,2.67,0,0,0-.89,1,2.84,2.84,0,0,0-.33,1.4,2.09,2.09,0,0,0,.77,1.82A3,3,0,0,0,167.22,41.12Z" fill="#231f20"/>
    <path d="M180.93,28.45v-5h16.84v5Zm11.46,17.87a10.74,10.74,0,0,1-4.23-.75,5.45,5.45,0,0,1-2.68-2.4,8.83,8.83,0,0,1-.93-4.35V16.19L191.12,15V36.72a5.34,5.34,0,0,0,.75,3.09,2.76,2.76,0,0,0,2.44,1.06,5.2,5.2,0,0,0,1.57-.26,5.77,5.77,0,0,0,1.63-.81l.38,5.4a5.89,5.89,0,0,1-1.48.61,14.5,14.5,0,0,1-1.94.38A16.25,16.25,0,0,1,192.39,46.32Z" fill="#231f20"/>
    <path d="M212.25,46.32a13.31,13.31,0,0,1-5.28-1,10.19,10.19,0,0,1-3.71-2.61A10.88,10.88,0,0,1,201.07,39a13.59,13.59,0,0,1-.73-4.46,13,13,0,0,1,1.35-6,10,10,0,0,1,4-4.18,12.61,12.61,0,0,1,6.44-1.53,14.19,14.19,0,0,1,5.18.88,10.09,10.09,0,0,1,3.7,2.48,10.6,10.6,0,0,1,2.23,3.73A14.06,14.06,0,0,1,224,34.5a13.11,13.11,0,0,1-1.36,6,10.23,10.23,0,0,1-4,4.22A12.28,12.28,0,0,1,212.25,46.32Zm0-5.45A4.16,4.16,0,0,0,215,40a5.48,5.48,0,0,0,1.63-2.36,8.62,8.62,0,0,0,.55-3.11,8.3,8.3,0,0,0-.62-3.36A4.84,4.84,0,0,0,214.79,29a5,5,0,0,0-5.37.09,5,5,0,0,0-1.7,2.23,9.08,9.08,0,0,0,0,6.28,5.62,5.62,0,0,0,1.7,2.36A4.36,4.36,0,0,0,212.23,40.87Z" fill="#231f20"/>
    <path d="M228.24,45.72V23.43l5.61-.34.29,3.89h.56a11.27,11.27,0,0,1,1.83-2.05A8.85,8.85,0,0,1,239,23.4a8.35,8.35,0,0,1,3.18-.58,6.36,6.36,0,0,1,5.07,2q1.73,2,1.72,5.91v15h-6.66V32.85a5.49,5.49,0,0,0-.64-3,2.58,2.58,0,0,0-2.33-1,4,4,0,0,0-1.76.39,5.56,5.56,0,0,0-1.48,1.05,8.77,8.77,0,0,0-1.18,1.46V45.72Z" fill="#231f20"/>
    <path d="M265.25,46.3a14.36,14.36,0,0,1-7-1.52,9.37,9.37,0,0,1-4-4.18,13.65,13.65,0,0,1-1.3-6.1,14.38,14.38,0,0,1,1.22-6.06,9.25,9.25,0,0,1,3.62-4.12,11.19,11.19,0,0,1,5.95-1.48,11.54,11.54,0,0,1,5.2,1.08,7.35,7.35,0,0,1,3.33,3.26,11.64,11.64,0,0,1,1.16,5.52c0,.59,0,1.12,0,1.59a12.39,12.39,0,0,1-.16,1.38l-5.72-2.17c0-.21.06-.41.07-.61s0-.4,0-.6a5.31,5.31,0,0,0-1.06-3.51,3.39,3.39,0,0,0-2.76-1.29,3.59,3.59,0,0,0-2.23.75A4.85,4.85,0,0,0,260,30.33a8.31,8.31,0,0,0-.56,3.19v1.1a7.48,7.48,0,0,0,.7,3.34,4.74,4.74,0,0,0,2.18,2.13,8.45,8.45,0,0,0,3.78.74,13.78,13.78,0,0,0,2.06-.18,19.4,19.4,0,0,0,2.39-.53,12,12,0,0,0,2.27-.88l.22,5.63a12.73,12.73,0,0,1-2,.72,18.08,18.08,0,0,1-2.6.52A23.6,23.6,0,0,1,265.25,46.3Zm-9.78-10.63V32.11l13.83-.29,3.88,1.08v2.77Z" fill="#231f20"/>
  </g>
</svg>
